<svg xmlns="http://www.w3.org/2000/svg" xmlns:xlink="http://www.w3.org/1999/xlink" viewBox="0 0 4680 3120"><defs><style>.cls-1{fill:#f9d8ad;}.cls-2{fill:#f73c4f;}.cls-3{fill:#ffb5a4;}.cls-4{fill:#935c61;}.cls-5{fill:#afdddd;}.cls-6{fill:#ff7f6a;}.cls-7{fill:#376f92;}.cls-8{fill:#c67a56;}.cls-9{fill:#596684;}.cls-10{fill:#a9eaea;}.cls-11{fill:#d49c83;}.cls-12{fill:#f4c892;}.cls-13{fill:#d49e82;}.cls-14,.cls-74{fill:#fff;}.cls-15{fill:#c9d8ed;}.cls-16{fill:#b2b2d3;}.cls-17{fill:#ceeae9;opacity:0.5;}.cls-18{fill:#efeff9;}.cls-103,.cls-19,.cls-24,.cls-42,.cls-50,.cls-66,.cls-83,.cls-84,.cls-85,.cls-86,.cls-97,.cls-99{fill:none;}.cls-19{stroke:#8b8fc9;stroke-width:9px;stroke-dasharray:23;opacity:0.62;}.cls-103,.cls-19,.cls-24,.cls-42,.cls-50,.cls-66,.cls-83,.cls-84,.cls-85,.cls-86{stroke-linecap:round;}.cls-103,.cls-19,.cls-24,.cls-42,.cls-50,.cls-83,.cls-84,.cls-85,.cls-86{stroke-linejoin:round;}.cls-20{fill:#f9b485;}.cls-21{clip-path:url(#clip-path);}.cls-22{fill:#f4873d;}.cls-23{fill:#f7f2e4;}.cls-24{stroke:#8f8fc1;stroke-width:13px;}.cls-25{fill:#f77957;}.cls-26{fill:#0f8787;}.cls-27{fill:url(#linear-gradient);}.cls-28{fill:#b72e40;}.cls-29{clip-path:url(#clip-path-2);}.cls-30{fill:#ea2d48;}.cls-31{fill:#d0cee0;}.cls-32{fill:#7e8598;}.cls-33{fill:#989faf;}.cls-34{clip-path:url(#clip-path-3);}.cls-35{clip-path:url(#clip-path-4);}.cls-36{fill:#9595c4;}.cls-37{clip-path:url(#clip-path-5);}.cls-38{fill:#83c6c4;}.cls-39{fill:#aab4d1;}.cls-40{clip-path:url(#clip-path-6);}.cls-41{fill:#dfefee;opacity:0.55;}.cls-42{stroke:#6da8c6;stroke-width:7px;}.cls-43{clip-path:url(#clip-path-7);}.cls-44{fill:#440808;opacity:0.32;}.cls-45{clip-path:url(#clip-path-8);}.cls-46{clip-path:url(#clip-path-9);}.cls-47{clip-path:url(#clip-path-10);}.cls-48{fill:#ff5e3e;}.cls-49{fill:#683c2f;}.cls-50,.cls-85{stroke:#683c2f;}.cls-50{stroke-width:3px;}.cls-51{clip-path:url(#clip-path-11);}.cls-52{fill:#c42d2d;}.cls-53{clip-path:url(#clip-path-12);}.cls-54{fill:#e55451;}.cls-55{fill:#ebebf7;opacity:0.42;}.cls-56{clip-path:url(#clip-path-13);}.cls-57{opacity:0.68;}.cls-58{clip-path:url(#clip-path-14);}.cls-59{fill:#1d5977;}.cls-60{clip-path:url(#clip-path-15);}.cls-61{clip-path:url(#clip-path-16);}.cls-62{clip-path:url(#clip-path-17);}.cls-63{fill:#91cecc;}.cls-64{clip-path:url(#clip-path-18);}.cls-65{fill:#822c2c;}.cls-66{stroke:#3a0909;}.cls-66,.cls-97,.cls-99{stroke-miterlimit:10;}.cls-103,.cls-66,.cls-97,.cls-99{stroke-width:4px;}.cls-67{fill:#195f82;}.cls-68{clip-path:url(#clip-path-19);}.cls-69{fill:#313f5b;}.cls-70{clip-path:url(#clip-path-20);}.cls-71{clip-path:url(#clip-path-21);}.cls-72{fill:#88d3d1;}.cls-73{clip-path:url(#clip-path-22);}.cls-74{opacity:0.52;}.cls-75{fill:#c4856c;}.cls-76{clip-path:url(#clip-path-23);}.cls-77{fill:#cc8a71;}.cls-78{clip-path:url(#clip-path-24);}.cls-79{fill:#e5b27a;}.cls-80{clip-path:url(#clip-path-25);}.cls-81{clip-path:url(#clip-path-26);}.cls-82{fill:#fce2c3;}.cls-83{stroke:#fff;opacity:0.54;}.cls-83,.cls-84{stroke-width:12px;}.cls-84{stroke:#c4856c;}.cls-85{stroke-width:5px;}.cls-86{stroke:#c12e11;stroke-width:15px;}.cls-87{clip-path:url(#clip-path-27);}.cls-88{fill:#d66518;}.cls-89{clip-path:url(#clip-path-28);}.cls-90{clip-path:url(#clip-path-29);}.cls-91{clip-path:url(#clip-path-30);}.cls-92{clip-path:url(#clip-path-31);}.cls-93{clip-path:url(#clip-path-32);}.cls-94{clip-path:url(#clip-path-33);}.cls-95{clip-path:url(#clip-path-34);}.cls-96{fill:#9bc3c6;}.cls-97{stroke:#9bc3c6;}.cls-98{fill:#feae6f;}.cls-99{stroke:#feae6f;}.cls-100{fill:#01a79d;}.cls-101{fill:#009183;}.cls-102{fill:#18d1bf;}.cls-103{stroke:#d0cee0;}</style><clipPath id="clip-path"><path class="cls-1" d="M1971.56,536.3V1592.71a117.75,117.75,0,0,0,84.37,112.91L3334,2083.34c75.44,22.3,151.1-34.24,151.1-112.9V674.7a117.73,117.73,0,0,0-108.94-117.41L2055.54,458.38A78.13,78.13,0,0,0,1971.56,536.3Z"></path></clipPath><linearGradient id="linear-gradient" x1="2278.15" y1="1117.74" x2="1738.92" y2="1079.44" gradientUnits="userSpaceOnUse"><stop offset="0" stop-color="#2695c3"></stop><stop offset="0" stop-color="#5abfcb"></stop><stop offset="1" stop-color="#fff" stop-opacity="0"></stop></linearGradient><clipPath id="clip-path-2"><rect class="cls-2" x="2074.4" y="1013.74" width="118.72" height="211.15"></rect></clipPath><clipPath id="clip-path-3"><path class="cls-15" d="M1768.36,2568.9s-3.22,6.57-23.37,6.58c-19,0-23.37-6.58-23.37-6.58v-679h46.74Z"></path></clipPath><clipPath id="clip-path-4"><path class="cls-16" d="M1445.18,1215.83c163.66-71.72,299.57-65.87,328.16-4.6s66.68,366.13,85.06,473.37,36.26,126.63,140.17,166.46,265.28,76.6,261.19,150.13-236.93,297.19-415.66,286-343.14-100.09-414.63-225.7S1299.76,1732.6,1289.55,1558,1291.36,1283.23,1445.18,1215.83Z"></path></clipPath><clipPath id="clip-path-5"><path class="cls-5" d="M1791.38,1331.74s.51-4.59,17-.89,132.94,87.19,152.85,98.43,84.6,47.23,84.6,47.23l-22.73,114.89-187.4-73.27-44.3-110.81Z"></path></clipPath><clipPath id="clip-path-6"><path class="cls-14" d="M1603.08,1324.42l-4.59,3.75s-38.3,19.15-87.32,43.4-71.49,38.3-64.85,71.49,71,303.83,93.44,362,65.88,102.63,65.88,102.63,33.7,17.88,100.08,0S1886,1786.21,1886,1786.21s6.63-52.08-10.22-105.19-17.36-59.74-28.08-152.68-32.17-197.11-54.64-201.7-116.73-6.27-116.73-6.27Z"></path></clipPath><clipPath id="clip-path-7"><path class="cls-4" d="M1529.84,1036.77s-70.81-23.15-78.64,19.4,56.17,26.89,55.49,25.87S1529.84,1036.77,1529.84,1036.77Z"></path></clipPath><clipPath id="clip-path-8"><path class="cls-4" d="M1710.41,1115.91c1.42-4,13.9-13.1,7.06-52.25s-53-58.83-115.79-56-88.21,24.53-110.14,70.75-5.43,107.32,24.53,143.64,80.9,22.64,80.9,22.64l30.42-28.54Z"></path></clipPath><clipPath id="clip-path-9"><path class="cls-3" d="M1709.3,1083.06s12.25,82.22,24,136.34-9.71,90.39-68.94,71-79.66-39.32-79.66-39.32l-15.32-43.91s-30.13,25.53-37.79-14.3,30.64-27.57,30.64-27.57-3.06-30.13,15.32-59.24S1679.68,1045.79,1709.3,1083.06Z"></path></clipPath><clipPath id="clip-path-10"><path class="cls-4" d="M1560.87,1134.74c.34,2.45,28.11,46.37,55.35,62.37s103.49,3.58,120.17-18.81c0,0,26.69,72.93,18.52,105.27S1638.83,1319,1638.83,1319s-41.44-30.3-47.28-38.47-12.3-10.55-15.36-21.11-6.81-52.25-6.81-52.25-4.77-22.46-10.55-47.57S1560.87,1134.74,1560.87,1134.74Z"></path></clipPath><clipPath id="clip-path-11"><path class="cls-5" d="M1496.21,1437.69c40.51,24.17,52.09,49.7,52.77,114.39s-1.36,152.51-1.36,152.51l-25,42.89s-43.47,30.3-44.49,30.3S1452,1774,1452,1774l-14-13.61s-.68-68.77-2.38-122.56.34-99.4,0-143.66,4.25-79,27.57-72S1496.21,1437.69,1496.21,1437.69Z"></path></clipPath><clipPath id="clip-path-12"><path class="cls-6" d="M1828.43,1585h144v149s-25.23,15.66-72,15.66c-54.85,0-72-15.66-72-15.66Z"></path></clipPath><clipPath id="clip-path-13"><path class="cls-3" d="M1544.1,1739.23s167-62.29,177.71-76.34,51.32-47,76.34-52.08,33.95,21.7,36.51,70S1743,1715,1743,1715s-83.49,50.55-122.3,72.51-106,60.25-126.64,58.72-34-8.42-36.76-16.08S1544.1,1739.23,1544.1,1739.23Z"></path></clipPath><clipPath id="clip-path-14"><path class="cls-7" d="M1477.13,1740.42c18.51-6.88,70.8-50.38,73.87-39.48s-4.26,13.27,3.4,21.27,2.73,5.28-9,24.17-59.23,79.66-80.51,86.64-37.79-19.06-38.3-30.64,11.1-10.38,8.36-22.3-16.53-22.8-7.68-28.59S1456.53,1748.08,1477.13,1740.42Z"></path></clipPath><clipPath id="clip-path-15"><path class="cls-3" d="M2074.72,1482.6s11,3.49,18-13.95,37.9-224.41,37.9-224.41a445.92,445.92,0,0,0-21.41-59.47c-13.8-30.93,20.3-55.19,40-64.07s68.51,27.59,71,37.74-17.76,80.25-21.88,94.52-12.53,188.25-32,264.37S2129,1610,2120,1611s-72.32-12.14-72.32-12.14Z"></path></clipPath><clipPath id="clip-path-16"><path class="cls-7" d="M2010.17,1528.43c-4.13,30.79-12.52,64.75-4.08,67.44s15.64-2.85,26,6.65,23,12.67,34,1.74,13.32-38,15.36-60.16,9-84.54,2-87.54-14.14,5.06-22.57,5.22-5-7.44-11-9-4.22,3-14.14,3.32-14.69-5.7-19,4.91S2011.59,1517.81,2010.17,1528.43Z"></path></clipPath><clipPath id="clip-path-17"><path class="cls-5" d="M1624,1303.66c16.31,9.71,37.79,17.87,37.79,34.38s-3.92,67.92-9.2,67.75-58.89-66.56-60.93-74.22-2.72-39.83,4.25-39.83S1616.59,1299.23,1624,1303.66Z"></path></clipPath><clipPath id="clip-path-18"><path class="cls-8" d="M2678.43,2368.23s69.89-10.4,107.41-27.62,54.88-23.3,73.13-1.76-1.48,44-24.81,69.81c-32.32,35.73-98,70.27-98,70.27l8.57,9.74s-62.13,55.7-62.56,55.26l-16.1-16.41s-14.56-7-34.85-27.71-33.16-53.58-26.56-60.35,21.7,1.2,50.35-30.35S2678.43,2368.23,2678.43,2368.23Z"></path></clipPath><clipPath id="clip-path-19"><path class="cls-9" d="M2466.62,2661.31s-3.22,6.58-23.37,6.58c-19,0-23.37-6.58-23.37-6.58v-679h46.74Z"></path></clipPath><clipPath id="clip-path-20"><path class="cls-8" d="M2381.35,2621s64.81,28.16,105.76,33.4,58.89,9.25,63,37.19-24.55,36.58-58,46.12c-46.33,13.21-120.38,7.74-120.38,7.74l2.12,12.8s-82.2,14.39-82.33,13.79-5-22.45-5-22.45-8.63-13.66-14.91-41.95.21-63,9.4-65.26,17.78,12.5,58.78.88S2381.35,2621,2381.35,2621Z"></path></clipPath><clipPath id="clip-path-21"><path class="cls-7" d="M1614.83,1915.69s8.42,72,41.61,120,88.34,68.42,190.47,109.28,172.34,63.57,191.24,78.38,202.46,393.45,202.46,393.45,23,8.42,80.43-13.79,49.79-45.19,49.79-45.19-79.66-254.3-106.47-339.32S2163.25,2099,2125,2069.87c-141.62-94.62-285.1-196.16-344.22-237.84Z"></path></clipPath><clipPath id="clip-path-22"><ellipse class="cls-10" cx="2458.48" cy="1972.48" rx="511.52" ry="194.7"></ellipse></clipPath><clipPath id="clip-path-23"><path class="cls-11" d="M3304.52,2217.6c-35.18-42.25-75.86-55.9-75.86-55.9l-38.5.82-17,24.14c-83.7,7.53-174.56,59.46-240.81,146.44-73.3,96.23-97.22,210.09-71,296.76L2840.16,2660c22,37.9,86.18,66.58,86.18,66.58s2.81,1.15,2.83,1.13c102.29,73.84,268,23.86,372.45-113.33,104.07-136.62,108.64-308.79,11.49-388.22A63.52,63.52,0,0,1,3304.52,2217.6Z"></path></clipPath><clipPath id="clip-path-24"><ellipse class="cls-12" cx="3314.98" cy="2117.97" rx="38.3" ry="177.7" transform="translate(-378.54 3471.79) rotate(-52.7)"></ellipse></clipPath><clipPath id="clip-path-25"><ellipse class="cls-13" cx="3035.43" cy="2411.6" rx="254.2" ry="186.75" transform="translate(-722.29 3365.11) rotate(-52.7)"></ellipse></clipPath><clipPath id="clip-path-26"><ellipse class="cls-1" cx="3048.03" cy="2417.87" rx="254.2" ry="186.75" transform="matrix(0.61, -0.8, 0.8, 0.61, -722.32, 3377.61)"></ellipse></clipPath><clipPath id="clip-path-27"><circle class="cls-14" cx="2146.21" cy="553.38" r="33.62"></circle></clipPath><clipPath id="clip-path-28"><circle class="cls-14" cx="2308.55" cy="567.79" r="33.62" transform="translate(1378.31 2755.58) rotate(-80.78)"></circle></clipPath><clipPath id="clip-path-29"><circle class="cls-14" cx="2470.89" cy="581.72" r="33.62"></circle></clipPath><clipPath id="clip-path-30"><circle class="cls-14" cx="2633.24" cy="595.4" r="33.62" transform="translate(-27.41 1053.02) rotate(-22.5)"></circle></clipPath><clipPath id="clip-path-31"><circle class="cls-14" cx="2795.58" cy="608.98" r="33.62" transform="translate(388.19 2155.14) rotate(-45)"></circle></clipPath><clipPath id="clip-path-32"><circle class="cls-14" cx="2957.93" cy="624.02" r="33.62"></circle></clipPath><clipPath id="clip-path-33"><circle class="cls-14" cx="3120.27" cy="637.64" r="33.62"></circle></clipPath><clipPath id="clip-path-34"><circle class="cls-14" cx="3282.62" cy="651.79" r="33.62" transform="translate(2113.43 3787.61) rotate(-80.78)"></circle></clipPath></defs><title>06</title><g id="_06" data-name="06"><path class="cls-17" d="M1655.68,1344.64c.51.89-5.54,59.62-5.54,59.62s5.54,11.06,9.45-8.69,10.73-43.23,15.15-33.53,11.08,28.75,16.18,30.37,1.69-36.16-2.73-50.62-7.32-20.43-7.32-20.43-24.85,7.66-24.51,11.41S1655.68,1344.64,1655.68,1344.64Z"></path><path class="cls-18" d="M1727.58,2181.35c-332.88-86.27-714.72-225.27-708.59-833.1s271.47-938.72,714.8-1070.46S2576.87,513.7,2954.53,648.51s758.81,616.86,628.89,1050.17S2084.65,2273.89,1727.58,2181.35Z"></path><path class="cls-19" d="M1875.72,1898.85s-658.68,183.8-693.4-367.06,663.86-508.42,865.36-697.92,471.56-498.38,943.86-478S3613,678.64,3655.85,958.47s-192,494-192,494"></path><path class="cls-20" d="M3434.36,518.48,2113.75,419.57A77.7,77.7,0,0,0,2063.8,433l-64.06,43.24-7.5,24.88,37.53,42V1553.9a117.75,117.75,0,0,0,84.37,112.91l1261,372.68,38.38,39.28,65.83-42.39c37.37-19.27,64-58.12,64-104.75V635.89A117.75,117.75,0,0,0,3434.36,518.48Z"></path><path class="cls-1" d="M1971.56,536.3V1592.71a117.75,117.75,0,0,0,84.37,112.91L3334,2083.34c75.44,22.3,151.1-34.24,151.1-112.9V674.7a117.73,117.73,0,0,0-108.94-117.41L2055.54,458.38A78.13,78.13,0,0,0,1971.56,536.3Z"></path><g class="cls-21"><polygon class="cls-22" points="1931.93 617.83 3543.31 752.64 3522.06 489.15 1946.96 432.47 1931.93 617.83"></polygon></g><polygon class="cls-23" points="2022.56 761.26 3396.44 902.3 3396.44 2029.24 2022.56 1628.59 2022.56 761.26"></polygon><polygon class="cls-24" points="2022.56 761.26 3396.44 902.3 3396.44 2029.24 2022.56 1628.59 2022.56 761.26"></polygon><polygon class="cls-25" points="2780.93 1088.49 2993.68 1122.09 2993.68 1378.44 2780.93 1335.15 2780.93 1088.49"></polygon><path class="cls-26" d="M2143.59,729.24l-91-7.48a15.79,15.79,0,0,1-14.31-15.24l-.15-16.63A12.68,12.68,0,0,1,2052.16,677l91,7.48a15.79,15.79,0,0,1,14.31,15.24l.15,16.63A12.69,12.69,0,0,1,2143.59,729.24Z"></path><path class="cls-26" d="M2348.18,747.92l-91-7.48a15.8,15.8,0,0,1-14.31-15.24l-.15-16.63a12.68,12.68,0,0,1,14.06-12.91l91,7.47a15.8,15.8,0,0,1,14.31,15.25l.15,16.63A12.68,12.68,0,0,1,2348.18,747.92Z"></path><path class="cls-26" d="M2552.76,766.59l-91-7.47a15.8,15.8,0,0,1-14.31-15.24l-.15-16.64a12.68,12.68,0,0,1,14.05-12.91l91,7.48a15.8,15.8,0,0,1,14.31,15.24l.15,16.63A12.68,12.68,0,0,1,2552.76,766.59Z"></path><path class="cls-26" d="M2757.34,785.27l-91-7.48A15.79,15.79,0,0,1,2652,762.55l-.15-16.63A12.69,12.69,0,0,1,2665.91,733l91,7.48a15.79,15.79,0,0,1,14.31,15.24l.15,16.63A12.68,12.68,0,0,1,2757.34,785.27Z"></path><path class="cls-26" d="M2961.93,804l-91-7.48a15.79,15.79,0,0,1-14.31-15.24l-.15-16.63a12.67,12.67,0,0,1,14-12.91l91,7.47a15.8,15.8,0,0,1,14.31,15.24L2976,791A12.68,12.68,0,0,1,2961.93,804Z"></path><path class="cls-26" d="M3166.51,822.62l-91-7.47a15.81,15.81,0,0,1-14.31-15.25l-.15-16.63a12.68,12.68,0,0,1,14.06-12.91l91,7.48a15.8,15.8,0,0,1,14.31,15.24l.15,16.63A12.68,12.68,0,0,1,3166.51,822.62Z"></path><path class="cls-26" d="M3371.09,841.3l-91-7.48a15.79,15.79,0,0,1-14.31-15.24L3265.6,802A12.69,12.69,0,0,1,3279.66,789l91,7.48A15.79,15.79,0,0,1,3385,811.76l.15,16.63A12.68,12.68,0,0,1,3371.09,841.3Z"></path><line class="cls-24" x1="2177.81" y1="777.64" x2="2177.81" y2="1675.11"></line><line class="cls-24" x1="2371.72" y1="798.91" x2="2371.72" y2="1725.61"></line><line class="cls-24" x1="2577.53" y1="820.81" x2="2577.53" y2="1791.83"></line><line class="cls-24" x1="2780.93" y1="842.46" x2="2780.93" y2="1846.26"></line><line class="cls-24" x1="2993.68" y1="862.94" x2="2993.68" y2="1915.69"></line><line class="cls-24" x1="3197.82" y1="882.59" x2="3197.82" y2="1972.48"></line><line class="cls-24" x1="2022.56" y1="968.71" x2="3396.44" y2="1185.7"></line><line class="cls-24" x1="2022.56" y1="1180.83" x2="3396.44" y2="1460.41"></line><path class="cls-24" d="M2032.38,1389.31c.1,4.4,1364.06,350.43,1364.06,350.43"></path><path class="cls-27" d="M2187.76,1019.25l-251.23-99.08s-84.26,94.1-55.15,154.28-18.38,73.68-20.68,106.38,15.32,75.77,36.77,81.43,4.59,0,4.59,0l285.7-47.81Z"></path><rect class="cls-28" x="2058.06" y="1013.74" width="118.72" height="211.15"></rect><rect class="cls-2" x="2074.4" y="1013.74" width="118.72" height="211.15"></rect><g class="cls-29"><path class="cls-30" d="M2168.63,1011.7s1.52,44.81-10,87.7-91.15,64.26-91.15,64.26l-3.07,52.17s2.3,26,22.22,29.11,120.18,14,131-4.09,13.78-72,13.78-72-14.55-173.32-16.85-174.6S2168.63,1011.7,2168.63,1011.7Z"></path></g><ellipse class="cls-31" cx="2371.17" cy="2631.16" rx="1167.32" ry="239.11"></ellipse><path class="cls-32" d="M1869.2,2559.76c-22.76-14.12-69.87-23.82-124.29-23.82s-101.53,9.7-124.28,23.82h-14.54v28.42c0,23.74,62.16,43,138.82,43s138.82-19.24,138.82-43v-28.42Z"></path><ellipse class="cls-33" cx="1744.91" cy="2559.76" rx="138.82" ry="42.98"></ellipse><path class="cls-15" d="M1768.36,2568.9s-3.22,6.57-23.37,6.58c-19,0-23.37-6.58-23.37-6.58v-679h46.74Z"></path><g class="cls-34"><polygon class="cls-9" points="1676.45 2323.91 1828.62 2323.91 1828.62 2232.68 1660.11 2232.68 1676.45 2323.91"></polygon></g><path class="cls-16" d="M1445.18,1215.83c163.66-71.72,299.57-65.87,328.16-4.6s66.68,366.13,85.06,473.37,36.26,126.63,140.17,166.46,265.28,76.6,261.19,150.13-236.93,297.19-415.66,286-343.14-100.09-414.63-225.7S1299.76,1732.6,1289.55,1558,1291.36,1283.23,1445.18,1215.83Z"></path><g class="cls-35"><path class="cls-36" d="M1451.48,1194.64s20.38,69.56,40.54,101-97.28,66.19-90.13,206.11-9.43,355.4,43.29,380.93,68,4.87,120.12,89.76,49,155.35,234.89,215.6,244.29,76.6,244.29,76.6l42-32,79.32-41.53-8.17-218.67L1558.08,1618s128.41-271.27,122.79-296.67-55.79-104.51-55.79-104.51l-112.89-67.4Z"></path></g><path class="cls-5" d="M1791.38,1331.74s.51-4.59,17-.89,132.94,87.19,152.85,98.43,84.6,47.23,84.6,47.23l-22.73,114.89-187.4-73.27-44.3-110.81Z"></path><g class="cls-37"><path class="cls-38" d="M1810.06,1370.72c.68,1.7,36.43,98,80.68,132.77s144,54.81,144,54.81l-19.4,35.74-18,4.91-182.47-70.61Z"></path></g><path class="cls-39" d="M1659,1599s126.16,21.34,228,39.77,231.6,28.4,234.91,99.63-5.12,286.29-5.12,286.29-4.68,9.54-21.37,7.5-18.38-13.62-18.38-13.62,3.86-172.19,5.28-215.06c1.53-46.22-1.19-70.61-30.13-88.32S1659,1636.73,1659,1636.73s-7.15-3.4-7.15-19.4C1651.84,1602.35,1659,1599,1659,1599Z"></path><path class="cls-14" d="M1603.08,1324.42l-4.59,3.75s-38.3,19.15-87.32,43.4-71.49,38.3-64.85,71.49,71,303.83,93.44,362,65.88,102.63,65.88,102.63,33.7,17.88,100.08,0S1886,1786.21,1886,1786.21s6.63-52.08-10.22-105.19-17.36-59.74-28.08-152.68-32.17-197.11-54.64-201.7-116.73-6.27-116.73-6.27Z"></path><g class="cls-40"><path class="cls-41" d="M1764.19,1320.62c14.55,17,36.77,94.36,49.79,173.25s-99.42,165.45-163.84,190.73-115-143.24-115-143.24-27.39,178.93-16.09,236.42,51.32,145,51.32,145,86.44-.46,151.22-7.12,211.85-63.35,211.85-63.35l62-85.65-114.9-336.39-32.93-85.66-27.58-36.13Z"></path><path class="cls-42" d="M1661.81,1329.41s39.59,120.41,61.62,202.38,61.22,244,86.72,291.44"></path></g><path class="cls-6" d="M1586.4,1240.85s15.15,45.45,12.09,87.32c0,0,14.47,19.74,49.7,16s28.59-19.92,28.59-19.92-3.23-24.34-2.89-44.76Z"></path><path class="cls-4" d="M1529.84,1036.77s-70.81-23.15-78.64,19.4,56.17,26.89,55.49,25.87S1529.84,1036.77,1529.84,1036.77Z"></path><g class="cls-43"><path class="cls-44" d="M1505.16,1011.06c0,1.54-39.83,53.62-33.7,107.24l58.38-1s16.17-52.09,19.74-70,2.06-41.88,2.06-41.88Z"></path></g><path class="cls-4" d="M1710.41,1115.91c1.42-4,13.9-13.1,7.06-52.25s-53-58.83-115.79-56-88.21,24.53-110.14,70.75-5.43,107.32,24.53,143.64,80.9,22.64,80.9,22.64l30.42-28.54Z"></path><g class="cls-45"><path class="cls-44" d="M1463.94,1144.1s36.8,46.11,61.09,2.71,44.74-107.24,113.92-108S1613,995.86,1613,995.86l88.44,14.15,50,48.35s14.86,76,4.25,82.79-143.87,126.66-143.87,126.66-46.94,4.24-54.25,0-77.13-42.93-79-52.36S1463.94,1144.1,1463.94,1144.1Z"></path></g><path class="cls-3" d="M1709.3,1083.06s12.25,82.22,24,136.34-9.71,90.39-68.94,71-79.66-39.32-79.66-39.32l-15.32-43.91s-30.13,25.53-37.79-14.3,30.64-27.57,30.64-27.57-3.06-30.13,15.32-59.24S1679.68,1045.79,1709.3,1083.06Z"></path><g class="cls-46"><path class="cls-6" d="M1522.4,1192.34s15.32-22.21,38.81-14.55,4.52-60,42.09-82.22,77.52-22.21,103.37-7.66,26.63,16.34,26.63,16.34l-11.49-31.14s-68.17-11.49-69.2-11.49-96.51,4.36-96.51,4.36-.76,48.23-1,50.53-29.36,51.25-30.38,52.3S1522.4,1192.34,1522.4,1192.34Z"></path><path class="cls-4" d="M1560.87,1134.74c.34,2.45,28.11,46.37,55.35,62.37s103.49,3.58,120.17-18.81c0,0,26.69,72.93,18.52,105.27S1638.83,1319,1638.83,1319s-41.44-30.3-47.28-38.47-12.3-10.55-15.36-21.11-6.81-52.25-6.81-52.25-4.77-22.46-10.55-47.57S1560.87,1134.74,1560.87,1134.74Z"></path><g class="cls-47"><path class="cls-44" d="M1568.36,1222c.25.76,20.42,28.85,61.28,44.17s85.21,24.76,93.79-7.66,2.72-74.79,2.72-74.79l16.59,25,18.64,60.26s-41.11,44.93-42.38,45.19-46.83,2-52.78,2-85.09-17.74-88.41-23.42S1568.36,1222,1568.36,1222Z"></path></g></g><path class="cls-48" d="M1683.41,1194.64l13.19-17.07s-5-4.3-10-9.09c-9.88-9.34-16.47-25.49-16.47-25.49Z"></path><path class="cls-49" d="M1627.29,1161.68c1.53,4.91,5.79,8,9.52,6.79s5.51-6.08,4-11-5.78-8-9.51-6.79S1625.77,1156.77,1627.29,1161.68Z"></path><path class="cls-49" d="M1688.05,1142.79c1.52,4.91,5.78,8,9.51,6.79s5.51-6.08,4-11-5.79-7.95-9.52-6.79S1686.52,1137.88,1688.05,1142.79Z"></path><path class="cls-50" d="M1646.86,1131.9s-22.64-15.41-43.56,10.27"></path><path class="cls-50" d="M1672.41,1125.88s10.5-21.49,34.26-10.15"></path><path class="cls-5" d="M1496.21,1437.69c40.51,24.17,52.09,49.7,52.77,114.39s-1.36,152.51-1.36,152.51l-25,42.89s-43.47,30.3-44.49,30.3S1452,1774,1452,1774l-14-13.61s-.68-68.77-2.38-122.56.34-99.4,0-143.66,4.25-79,27.57-72S1496.21,1437.69,1496.21,1437.69Z"></path><g class="cls-51"><path class="cls-38" d="M1513.21,1441.53c-2.25,6,18.38,66,7.15,176.5s-28.21,144.67-42.19,159.75l-14,15.07,108.25-57.19s29.43-56.19,10.12-111.84-24.48-171.4-24.48-171.4Z"></path></g><path class="cls-52" d="M1779.71,1660.51c0,55.15,54.64,56.68,54.64,56.68V1605.87S1779.71,1605.36,1779.71,1660.51Zm12.68,1c0-37.37,37.87-37.71,37.87-37.71v75.42S1792.39,1698.89,1792.39,1661.53Z"></path><path class="cls-6" d="M1828.43,1585h144v149s-25.23,15.66-72,15.66c-54.85,0-72-15.66-72-15.66Z"></path><g class="cls-53"><path class="cls-54" d="M1867.9,1556.83c0,2-28.6,35.86-19.91,95.29s39.83,78.32,92.93,79.35,69.45-6.13,69.45-6.13l-20.94,37.79-181.38,9.19-3-214.47Z"></path><path class="cls-55" d="M1966.45,1633.17c-.24,21.44,1,64.59-4.08,60.51s-8.17-68.94-7.15-83S1967,1585.65,1966.45,1633.17Z"></path></g><ellipse class="cls-52" cx="1900.43" cy="1585.03" rx="72" ry="12.46"></ellipse><path class="cls-3" d="M1544.1,1739.23s167-62.29,177.71-76.34,51.32-47,76.34-52.08,33.95,21.7,36.51,70S1743,1715,1743,1715s-83.49,50.55-122.3,72.51-106,60.25-126.64,58.72-34-8.42-36.76-16.08S1544.1,1739.23,1544.1,1739.23Z"></path><g class="cls-56"><g class="cls-57"><path class="cls-6" d="M1434.93,1815.68c4.49,2.19,31.3,13.14,86.45,0s171.58-90.49,206-104.28,42.16,2.25,83.91-17,47.07-22.06,47.07-22.06l-6.13,48.26-54.38,38.29s-338.09,130.24-340.66,129.18S1434.93,1815.68,1434.93,1815.68Z"></path></g></g><path class="cls-7" d="M1477.13,1740.42c18.51-6.88,70.8-50.38,73.87-39.48s-4.26,13.27,3.4,21.27,2.73,5.28-9,24.17-59.23,79.66-80.51,86.64-37.79-19.06-38.3-30.64,11.1-10.38,8.36-22.3-16.53-22.8-7.68-28.59S1456.53,1748.08,1477.13,1740.42Z"></path><g class="cls-58"><path class="cls-59" d="M1426.91,1738.47c.51,2.3,20.17,45.19,32.94,45.7s39.17-16.79,54.89-33.45,23.81-31.91,34.38-35.49,16.18,1.28,16.18,1.28l5.61,33.15s-61.27,57-70.21,67.7-40.86,16.83-40.86,16.83-32,1-35.51-11.21-3-32.17-4.82-42.9,1.79-30.38.76-33.44S1426.91,1738.47,1426.91,1738.47Z"></path></g><path class="cls-3" d="M2074.72,1482.6s11,3.49,18-13.95,37.9-224.41,37.9-224.41a445.92,445.92,0,0,0-21.41-59.47c-13.8-30.93,20.3-55.19,40-64.07s68.51,27.59,71,37.74-17.76,80.25-21.88,94.52-12.53,188.25-32,264.37S2129,1610,2120,1611s-72.32-12.14-72.32-12.14Z"></path><g class="cls-60"><g class="cls-57"><path class="cls-6" d="M2210,1125.88c0,2.63-17.62,102.2-22.22,160.42S2180.1,1454,2150.23,1510s-75.83,62.6-75.83,62.6l-42,43.73,79.55,33.84,89.62-47.49,45.19-471.83Z"></path></g></g><path class="cls-7" d="M2010.17,1528.43c-4.13,30.79-12.52,64.75-4.08,67.44s15.64-2.85,26,6.65,23,12.67,34,1.74,13.32-38,15.36-60.16,9-84.54,2-87.54-14.14,5.06-22.57,5.22-5-7.44-11-9-4.22,3-14.14,3.32-14.69-5.7-19,4.91S2011.59,1517.81,2010.17,1528.43Z"></path><g class="cls-61"><path class="cls-59" d="M2000.36,1572.56s19.74,10.25,37.45-3.71,22.46-36.08,26.89-84.77,21.79-44.25,21.79-44.25,18,27.23,18.38,52.08-15,118.28-15,118.28,39.49,26.06-19.4,23-75.58-6.91-81.36-16.9S2000.36,1572.56,2000.36,1572.56Z"></path></g><path class="cls-5" d="M1624,1303.66c16.31,9.71,37.79,17.87,37.79,34.38s-3.92,67.92-9.2,67.75-58.89-66.56-60.93-74.22-2.72-39.83,4.25-39.83S1616.59,1299.23,1624,1303.66Z"></path><g class="cls-62"><path class="cls-63" d="M1651.08,1314.89s6.3,32-8.85,42.73-52-18.22-52-18.22,21.31,38.64,24.55,44.77,16.68,34.21,24.34,34.89,35.06-6.81,35.06-6.81l3-89.53Z"></path></g><path class="cls-63" d="M1675.25,1296s-5.44,15.49-1.19,26.72,13.62,79.15,20.26,71.32,9.53-52.6,4.76-65.7S1678.15,1288.47,1675.25,1296Z"></path><path class="cls-32" d="M2567.45,2652.17c-22.75-14.12-69.86-23.81-124.28-23.81s-101.53,9.69-124.29,23.81h-14.53v28.42c0,23.74,62.15,43,138.82,43s138.82-19.24,138.82-43v-28.42Z"></path><ellipse class="cls-33" cx="2443.17" cy="2652.17" rx="138.82" ry="42.98"></ellipse><path class="cls-6" d="M2602.18,2311.17c1.35.44,78.63,67.64,87.12,57.64s19.83,1.79,18.76,16.66-34.53,70.94-34.53,70.94l-54.17-2.78-97.42-81.77Z"></path><path class="cls-8" d="M2678.43,2368.23s69.89-10.4,107.41-27.62,54.88-23.3,73.13-1.76-1.48,44-24.81,69.81c-32.32,35.73-98,70.27-98,70.27l8.57,9.74s-62.13,55.7-62.56,55.26l-16.1-16.41s-14.56-7-34.85-27.71-33.16-53.58-26.56-60.35,21.7,1.2,50.35-30.35S2678.43,2368.23,2678.43,2368.23Z"></path><g class="cls-64"><path class="cls-65" d="M2814.69,2318.36s-9.69,32.83,41.1,78,53.63-66.84,50-71-51.86-25.57-53.61-24.72S2814.69,2318.36,2814.69,2318.36Z"></path><path class="cls-65" d="M2871.39,2338.75s-1.9,16.11-40.17,51.06-75,49.85-108.88,77-68,61-68,61,25,27.28,25.66,29.25,17.93,17.39,26.95,8.54,152.88-141.31,161.46-148.86,30.63-56.39,30.63-56.39Z"></path><path class="cls-66" d="M2768.65,2339.14c.63.64-6.89,17,6,31.48"></path><path class="cls-66" d="M2742.7,2349.84s-3.32,12.95,9.57,32.54"></path><path class="cls-66" d="M2719.45,2355.36s-1.31,25.73,12.81,39.91"></path><path class="cls-66" d="M2692.18,2358.93s-9.82,26.07,16.46,47.5"></path></g><path class="cls-66" d="M2688,2374.21s-15.28-26.11-4.95-37.92,30.78.57,25.48,13.15S2688,2374.21,2688,2374.21Z"></path><path class="cls-67" d="M2367,1995.06c-29.11-20.93-466.22-203.23-466.22-203.23h-40.34l-79.71,40.2c59.12,41.68,202.6,143.22,344.22,237.84,0,0,111.32,29.87,132.77,55.92s246.13,292.08,252.26,292.08,58.72-11.74,89.87-41.87,48.51-94,48.51-94S2396.1,2016,2367,1995.06Z"></path><path class="cls-9" d="M2466.62,2661.31s-3.22,6.58-23.37,6.58c-19,0-23.37-6.58-23.37-6.58v-679h46.74Z"></path><g class="cls-68"><polygon class="cls-69" points="2374.7 2278.36 2526.88 2278.36 2526.88 2187.14 2358.36 2187.14 2374.7 2278.36"></polygon></g><path class="cls-3" d="M2346.84,2532.26c.92,1.09,30.93,99,43.42,95s15.88,12,7.11,24.06-66.84,41.93-66.84,41.93l-44.49-31-39.4-120.94Z"></path><path class="cls-8" d="M2381.35,2621s64.81,28.16,105.76,33.4,58.89,9.25,63,37.19-24.55,36.58-58,46.12c-46.33,13.21-120.38,7.74-120.38,7.74l2.12,12.8s-82.2,14.39-82.33,13.79-5-22.45-5-22.45-8.63-13.66-14.91-41.95.21-63,9.4-65.26,17.78,12.5,58.78.88S2381.35,2621,2381.35,2621Z"></path><g class="cls-70"><path class="cls-65" d="M2523.36,2650.81s-25.6,22.73-6.4,87.94,80.87-28.35,80-33.83-30.47-49.14-32.41-49.34S2523.36,2650.81,2523.36,2650.81Z"></path><path class="cls-65" d="M2560.68,2698.11s-10.14,12.67-61.1,22.07-90.06,2.6-133.13,7.73-90,15.84-90,15.84,6.8,36.38,6.3,38.39,6,24.24,18.35,21.51,204.5-39,215.77-40.89,55.83-31.64,55.83-31.64Z"></path><path class="cls-66" d="M2473.3,2644.08c.19.88-14.87,10.81-11.56,29.89"></path><path class="cls-66" d="M2445.61,2639.43s-9.67,9.23-9.09,32.68"></path><path class="cls-66" d="M2423,2631.81s-14.73,21.14-10.25,40.64"></path><path class="cls-66" d="M2397.94,2620.41s-22.14,16.93-11.17,49"></path></g><path class="cls-66" d="M2386.3,2631.16s.85-30.24,15.86-34.8,25.82,16.78,14.66,24.64S2386.3,2631.16,2386.3,2631.16Z"></path><path class="cls-7" d="M1614.83,1915.69s8.42,72,41.61,120,88.34,68.42,190.47,109.28,172.34,63.57,191.24,78.38,202.46,393.45,202.46,393.45,23,8.42,80.43-13.79,49.79-45.19,49.79-45.19-79.66-254.3-106.47-339.32S2163.25,2099,2125,2069.87c-141.62-94.62-285.1-196.16-344.22-237.84Z"></path><g class="cls-71"><path class="cls-67" d="M2022.56,2302.47s187.16,76.59,147.33-24.51S2079,2186,2011.59,2122.72s-238.25-276.46-238.25-276.46l75.87-14.23,466.46,246.74,112.6,481-57.1,79.73s-183.92,20.42-197.19,7.15S2022.56,2302.47,2022.56,2302.47Z"></path></g><path class="cls-8" d="M1750.83,1846.26c49.64-28.74,134-98.47,137.7-96.56s17.53,37,18.72,44.34-112.08,80.26-146.55,98.21c-59.74,31.13-145.19,46.3-158.64,30s-29.28-43.74-11.74-40.68S1673.21,1891.19,1750.83,1846.26Z"></path><path class="cls-72" d="M2957.83,1968c-50.84-87.14-255.1-152.31-499.35-152.31S2010,1880.85,1959.12,1968h-12v37.91c-.09,1.49-.14,3-.14,4.48,0,107.53,229,194.7,511.52,194.7S2970,2117.91,2970,2010.38V1968Z"></path><ellipse class="cls-10" cx="2458.48" cy="1972.48" rx="511.52" ry="194.7"></ellipse><g class="cls-73"><path class="cls-74" d="M2438.64,1758.51c-3.88,3.58-410.33,441.19-410.33,441.19l144,24.14,363.58-444.94Z"></path><polyline class="cls-74" points="2630.87 1776.4 2336.99 2216.43 2547.38 2239.47 2756.48 1790.86 2630.87 1776.4"></polyline></g><rect class="cls-75" x="3227.25" y="2125.29" width="75.57" height="113.15" transform="translate(1989.67 -1532.22) rotate(37.3)"></rect><path class="cls-11" d="M3304.52,2217.6c-35.18-42.25-75.86-55.9-75.86-55.9l-38.5.82-17,24.14c-83.7,7.53-174.56,59.46-240.81,146.44-73.3,96.23-97.22,210.09-71,296.76L2840.16,2660c22,37.9,86.18,66.58,86.18,66.58s2.81,1.15,2.83,1.13c102.29,73.84,268,23.86,372.45-113.33,104.07-136.62,108.64-308.79,11.49-388.22A63.52,63.52,0,0,1,3304.52,2217.6Z"></path><g class="cls-76"><path class="cls-77" d="M2806.15,2602s69.53,100.81,305.4,55.87S3382.27,2324.12,3373,2260.6l70.46,137.87L3436.27,2602s-71.49,173-74.55,170.08-117.45,67.58-128.68,67.58S2845,2823.32,2845,2823.32l-71.49-120.51Z"></path></g><ellipse class="cls-12" cx="3314.98" cy="2117.97" rx="38.3" ry="177.7" transform="translate(-378.54 3471.79) rotate(-52.7)"></ellipse><g class="cls-78"><path class="cls-79" d="M3170.74,2070.64s126.64,88.9,208.34,96.53,67.41-31.17,60.26-41.38,64.34,30,65.36,35.91,17.36,73.36,14.3,74.38-70.47,32.69-76.6,32.69-111.33-25.67-111.33-25.67Z"></path></g><ellipse class="cls-12" cx="3035.43" cy="2411.6" rx="315.91" ry="232.09" transform="translate(-722.29 3365.12) rotate(-52.7)"></ellipse><ellipse class="cls-13" cx="3035.43" cy="2411.6" rx="254.2" ry="186.75" transform="translate(-722.29 3365.11) rotate(-52.7)"></ellipse><g class="cls-80"><ellipse class="cls-1" cx="3048.03" cy="2417.87" rx="254.2" ry="186.75" transform="matrix(0.61, -0.8, 0.8, 0.61, -722.32, 3377.61)"></ellipse><g class="cls-81"><path class="cls-82" d="M2783.68,2510.6s52,46.17,186.32,27.78,253.88-183.73,255.4-300.2.49-6.9.49-6.9-61.5-84.05-61.9-84.05-235.29-1-237.84,5.11-71.54,113.72-71.54,113.72l-71.3,136.56Z"></path></g></g><line class="cls-83" x1="3141.01" y1="2490.94" x2="3163.99" y2="2510.6"></line><ellipse class="cls-75" cx="3123.72" cy="2243.1" rx="18.47" ry="16.13" transform="translate(-380.74 3826.73) rotate(-60)"></ellipse><ellipse class="cls-75" cx="3136.68" cy="2483.61" rx="16.13" ry="18.47" transform="translate(-739.66 3474.09) rotate(-52.71)"></ellipse><polyline class="cls-84" points="3131.42 2480.68 3025.72 2405.36 3119.93 2248.34"></polyline><line class="cls-83" x1="2903.17" y1="2316.51" x2="2926.15" y2="2336.17"></line><line class="cls-83" x1="2911.68" y1="2578.08" x2="2893.17" y2="2602"></line><line class="cls-83" x1="3162.01" y1="2207.36" x2="3143.5" y2="2231.28"></line><path class="cls-85" d="M1655.68,1252.34s.25-26.45,35.23-22.8"></path><path class="cls-39" d="M1371,1787.23s126.16,21.34,228,39.78,231.6,28.39,234.91,99.63-5.12,286.28-5.12,286.28-4.68,9.55-21.36,7.5-18.38-13.61-18.38-13.61,3.85-172.2,5.27-215.07c1.53-46.21-1.19-70.61-30.13-88.31S1371,1825,1371,1825s-7.15-3.4-7.15-19.4C1363.85,1790.64,1371,1787.23,1371,1787.23Z"></path><path class="cls-86" d="M2814.84,1210l47,67.62s94.93-112.48,155.23-119.27"></path><circle class="cls-14" cx="2146.21" cy="553.38" r="33.62"></circle><g class="cls-87"><circle class="cls-88" cx="2155.55" cy="553.38" r="33.62"></circle></g><circle class="cls-14" cx="2308.55" cy="567.79" r="33.62" transform="translate(1378.31 2755.58) rotate(-80.78)"></circle><g class="cls-89"><circle class="cls-88" cx="2317.89" cy="567.79" r="33.62" transform="translate(277.41 1805.3) rotate(-45)"></circle></g><circle class="cls-14" cx="2470.89" cy="581.72" r="33.62"></circle><g class="cls-90"><circle class="cls-88" cx="2480.24" cy="581.72" r="33.62"></circle></g><circle class="cls-14" cx="2633.24" cy="595.4" r="33.62" transform="translate(-27.41 1053.02) rotate(-22.5)"></circle><g class="cls-91"><circle class="cls-88" cx="2642.58" cy="595.4" r="33.62" transform="translate(-26.7 1056.59) rotate(-22.5)"></circle></g><circle class="cls-14" cx="2795.58" cy="608.98" r="33.62" transform="translate(388.19 2155.14) rotate(-45)"></circle><g class="cls-92"><circle class="cls-88" cx="2804.92" cy="608.98" r="33.62" transform="translate(1754.51 3280.14) rotate(-80.78)"></circle></g><circle class="cls-14" cx="2957.93" cy="624.02" r="33.62"></circle><g class="cls-93"><circle class="cls-88" cx="2967.27" cy="624.02" r="33.62"></circle></g><circle class="cls-14" cx="3120.27" cy="637.64" r="33.62"></circle><g class="cls-94"><circle class="cls-88" cx="3129.61" cy="637.64" r="33.62"></circle></g><circle class="cls-14" cx="3282.62" cy="651.79" r="33.62" transform="translate(2113.43 3787.61) rotate(-80.78)"></circle><g class="cls-95"><circle class="cls-88" cx="3291.96" cy="651.79" r="33.62" transform="translate(1901.27 3705.93) rotate(-76.72)"></circle></g><circle class="cls-96" cx="1634.04" cy="746.76" r="34.89"></circle><circle class="cls-14" cx="1438.74" cy="737.13" r="24.13" transform="translate(390.78 1968.02) rotate(-76.72)"></circle><circle class="cls-97" cx="1744.99" cy="879.13" r="59.34"></circle><rect class="cls-98" x="1529.84" y="869.62" width="38.55" height="38.55"></rect><rect class="cls-99" x="1369.57" y="882.39" width="49.99" height="49.99" transform="translate(-267.06 992.13) rotate(-35.97)"></rect><path class="cls-100" d="M2672.44,1792s-.7-159.06,70.21-228.19c0,0,7,113.79-40,228.19Z"></path><path class="cls-101" d="M2675,1807.25s.7-159.06-70.21-228.19c0,0-7,113.79,40,228.19Z"></path><path class="cls-102" d="M2655.56,1795.09S2631,1666,2673.81,1549.77c0,0,41.42,147.43,11.94,245.32Z"></path><path class="cls-102" d="M2698.23,1750.84s48.68-105,118.29-127.4c0,0-26.69,81.61-96.19,139.44Z"></path><path class="cls-102" d="M2672.44,1759.65s-50.66-104.09-120.67-125.15c0,0,28.22,81.1,98.8,137.6Z"></path><path class="cls-6" d="M2592.83,1771.47l19,100.77a11.67,11.67,0,0,0,11.47,9.51H2726.4a11.67,11.67,0,0,0,11.47-9.48l19.29-100.77a11.67,11.67,0,0,0-11.47-13.86H2604.3A11.67,11.67,0,0,0,2592.83,1771.47Z"></path><path class="cls-54" d="M2756.92,1771.82H2593.07a11.68,11.68,0,0,1-11.67-11.68h0a11.68,11.68,0,0,1,11.67-11.67h163.85a11.68,11.68,0,0,1,11.68,11.67h0A11.68,11.68,0,0,1,2756.92,1771.82Z"></path><path class="cls-54" d="M2645,1934.87l-25.79.6L2326.66,1861,2177,1940.3c-.56-.42-4.85,2.17-10.08,5.62l-10.86.25c-.38-.13-10.21,2.43-10.21,2.43v12l309.45,104.17,206.3-118.52v-12Z"></path><path class="cls-6" d="M2177,1928.29c-4.34,2.43-31.15,20.31-31.15,20.31l309.45,104.17,206.3-118.52-335-85.23Z"></path><polygon class="cls-14" points="2324.45 1839.27 2648.54 1922.04 2443.25 2029.24 2140.27 1934.25 2324.45 1839.27"></polygon><line class="cls-103" x1="2584.53" y1="1918.98" x2="2422.66" y2="2005.28"></line></g></svg>