<svg xmlns="http://www.w3.org/2000/svg" viewBox="0 0 4680 3120"><defs><style>.cls-1{isolation:isolate;}.cls-10,.cls-2{fill:#fff;}.cls-2{opacity:0;}.cls-3{fill:#f1eae4;}.cls-4{fill:#02665a;}.cls-5{fill:#15a77d;}.cls-6{fill:#5cc6a5;}.cls-7{fill:#737373;}.cls-8{fill:#635dab;}.cls-9{fill:#aeacd8;}.cls-11{fill:#f9728a;}.cls-12{fill:#49c3da;}.cls-13{fill:#ca2061;}.cls-14{fill:#d5d5d5;}.cls-15{fill:#dcdcf9;}.cls-16{fill:#2d2b72;}.cls-17{opacity:0.29;}.cls-18{fill:#d4d4d4;}.cls-19{fill:#f1363c;}.cls-20{fill:#2b2b2b;}.cls-21{fill:#d2373e;}.cls-22{fill:#f7927c;}.cls-23{fill:#686868;}.cls-24{fill:#fbba94;}.cls-25{fill:#0177ae;}.cls-26{fill:#c1212d;}.cls-27{fill:#8e8e8e;}.cls-28{fill:#f68600;}.cls-29{fill:#fdb435;}.cls-30{fill:#393939;}.cls-31{fill:#333;}.cls-32{opacity:0.6;}.cls-33{fill:#4e4e4e;}.cls-34{opacity:0.15;}.cls-35{opacity:0.23;mix-blend-mode:multiply;}.cls-36{fill:#3c3b7f;}.cls-37{opacity:0.63;}.cls-38{fill:#cc6b02;}.cls-39{fill:#f9d2a7;}.cls-40{opacity:0.44;}.cls-41{fill:#f2de8b;}.cls-42{fill:#f9d32f;}</style></defs><title>04</title><g class="cls-1"><g id="_04" data-name="04"><rect id="_04-2" data-name="04" class="cls-2" width="4680" height="3120"></rect><path class="cls-3" d="M3781.46,1361.13c25.69-134.1,17.13-286-15.13-417.79-44-179.94-145.46-346.56-291.59-448.14-227.68-158.27-531.34-139.63-782.85-30.76-105.35,45.6-207.38,106.28-320.2,121.62-164.54,22.39-324.7-54.19-485-100.13-218.19-62.53-457.72-67.17-663.59,31.53C989.69,629.37,823.72,882,843.11,1160.23c8.79,126.08,53.73,250.49,37.82,375.74-16.13,127-86,233.29-123,352.93-50.5,163.29,67.8,502.57,284.65,569l2293.29,2c375-20.36,427.23-63.79,460.68-231.45,33.9-169.92-71.27-258.29-84-425.4C3700.54,1644.86,3752.58,1511.81,3781.46,1361.13Z"></path><path class="cls-4" d="M639.24,1675.79l-8.79,4.36c78.49,190.54,319.47,342.51,320.91,343.73l6.36-7.48C956.3,2015.2,752.43,1903.3,639.24,1675.79Z"></path><path class="cls-4" d="M677.87,1653.74c21.1,79.65,58.75,182.54,58.75,182.54C793.63,1566.54,656.78,1574.09,677.87,1653.74Z"></path><path class="cls-4" d="M598.9,1833.58c35.93,55.28,179.58,44.09,179.58,44.09s-82.41-43.05-127.32-82.08S563,1778.3,598.9,1833.58Z"></path><path class="cls-4" d="M539,1538.57c-4.53,37.86,105.88,158.74,105.88,158.74s-2.1-79.23-25-130.78S543.52,1500.71,539,1538.57Z"></path><path class="cls-5" d="M903.68,2157s-38.28-62.9-83.4-112.94-68.14-91.19-68.14-91.19l-12.3,119.59L715,1966.75s-54.26-54-136.1-92.13-127.32-95.54-127.32-95.54-.69,230.73,78.82,334c0,0,98.28,27.17,118.51,53.68,0,0-85.21-22.77-131.49-12.92a1264.91,1264.91,0,0,1,87.48,103.48c43.44,57.69,175.48,96.12,266.49,119.51s204.37,45,204.37,45,.39-48-50.27-117.67S903.68,2157,903.68,2157Z"></path><path class="cls-4" d="M780.26,2182.5c-28.76-31.32-55.92-60.89-82-86.11-93.59-90.47-241.93-317.15-243.41-319.44l-6.53,4.26c1.5,2.29,150.31,229.7,244.52,320.78,25.93,25.06,53,54.55,81.69,85.78,74.72,81.38,159.41,173.61,246.63,208.62l2.91-7.23C938.48,2354.81,854.42,2263.27,780.26,2182.5Z"></path><path class="cls-4" d="M469.21,1941.52l-4.06,6.64c2.18,1.34,53.94,32.82,88.73,44,33.92,10.92,69.94,32.36,70.29,32.57l4-6.68c-1.49-.9-37.12-22.1-71.9-33.31C522.36,1973.85,469.73,1941.83,469.21,1941.52Z"></path><path class="cls-4" d="M761.06,2226.14c-16.44,3.18-35.07,6.79-57.79,8.29-57.25,3.78-131.91-25.47-132.66-25.76l-2.86,7.24a458.48,458.48,0,0,0,64.14,19.21c22.74,5,48.49,8.63,71.89,7.08,23.21-1.53,42.92-5.35,58.76-8.42,24.24-4.69,41.74-8.11,54.39-.39l4.05-6.66C805.77,2217.5,787,2221.11,761.06,2226.14Z"></path><path class="cls-4" d="M831.28,2192.57c2.44-14.81,5.48-33.24,5.1-55.31-.94-55.69-6-86.47-6-86.78l-7.68,1.28c0,.3,5,30.59,5.92,85.63.37,21.37-2.48,38.66-5,53.91-4.05,24.6-7,42.38,7.71,57.45l5.58-5.44C825,2231.06,827.47,2215.75,831.28,2192.57Z"></path><path class="cls-4" d="M669.55,2000.83c-4.52-35.18-11.17-82.79-11.24-83.26l-7.72,1.07c.07.48,6.72,48,11.24,83.18,1.17,9.12,2.08,17.52,2.92,25.32,2.47,22.77,4.41,40.75,10.79,56.87l7.24-2.86c-6-15.15-7.89-32.66-10.29-54.85C671.65,2018.45,670.73,2010,669.55,2000.83Z"></path><path class="cls-4" d="M891.81,2321.28c-4.63,1.46-10.4,3.27-17.66,5.11-25.83,6.5-70.68,14.26-71.13,14.34l1.32,7.67c.46-.07,45.59-7.88,71.71-14.46,7.49-1.89,13.37-3.74,18.1-5.23,12.25-3.86,15.33-4.61,20.34-.46l5-6C911,2315.23,904.18,2317.38,891.81,2321.28Z"></path><path class="cls-6" d="M1193.34,2056.26c-1.59-56.73,57.85-196,6.43-263.32s-68.66,22-140.73-165.63-112.46-82.6-163.9-130.25-142.89-188.74-188.56-142.3,81.16,296.11,131.79,379.14,20.66,90.84-28,100.74-9.87,151.79,103.32,248.48,77.38,109,45.24,142.77,15.6,167.7,195.55,217.49c0,0,75.06,10.38,97.25,9.84,29.73-.72,44.4-196.38,45.63-271.27C1299.2,2070.48,1194.92,2113,1193.34,2056.26Z"></path><path class="cls-4" d="M770.76,1429.61l-7.81,6.85c.94,1.08,95.15,109,191.49,276.74,88.81,154.65,197.66,393.23,211.85,651.64l10.37-.57c-14.31-260.53-123.91-500.78-213.34-656.45C866.47,1539.23,771.7,1430.69,770.76,1429.61Z"></path><path class="cls-4" d="M889.55,1911.59c1.05.35,106.12,36.07,209,114.1l6.28-8.27c-104.26-79.11-210.88-115.32-211.94-115.67Z"></path><path class="cls-4" d="M1000.57,1562.66l-9.66-3.8c-1.53,3.87-36.95,96.48,6.7,233.44l9.89-3.15C965.05,1655.94,1000.21,1563.58,1000.57,1562.66Z"></path><path class="cls-7" d="M1114.18,1807.13c-1.64,2.93-40.07,73.14-27.63,186.91l10.32-1.14c-12.08-110.48,26-180,26.38-180.7Z"></path><path class="cls-4" d="M837.58,1634.84,835.43,1645l1.24.27c53.5,11.79,108.08,50.92,108.63,51.32l6.08-8.42c-2.31-1.67-56.9-40.8-112.45-53Z"></path><path class="cls-4" d="M3887.25,1357.23l4.3,5.06c1-.83,163.91-103.59,217-232.42l-5.94-2.95C4026.06,1280.75,3888.21,1356.41,3887.25,1357.23Z"></path><path class="cls-4" d="M4036.74,1235.44s25.46-69.57,39.73-123.43S3998.2,1053.05,4036.74,1235.44Z"></path><path class="cls-4" d="M4094.53,1207.93c-30.36,26.38-86.08,55.49-86.08,55.49s97.12,7.57,121.42-29.81S4124.9,1181.54,4094.53,1207.93Z"></path><path class="cls-4" d="M4115.71,1053.05c-15.5,34.85-16.92,88.42-16.92,88.42s74.66-81.73,71.59-107.33S4131.22,1018.2,4115.71,1053.05Z"></path><path class="cls-5" d="M4176.18,1422.58c53.77-69.81,53.3-225.82,53.3-225.82s-30.76,38.86-86.09,64.61-92,62.29-92,62.29l-16.79,71.48-8.32-80.86s-15.56,27.83-46.07,61.66-56.39,76.36-56.39,76.36-48.11,52.4-82.36,99.48-34,79.57-34,79.57,76.64-14.62,138.18-30.44,150.82-41.8,180.19-80.8a854.61,854.61,0,0,1,59.15-70c-31.29-6.66-88.9,8.74-88.9,8.74C4109.73,1441,4176.18,1422.58,4176.18,1422.58Z"></path><path class="cls-4" d="M4062.69,1411.31c-17.64,17-36,37-55.45,58.23-50.14,54.61-107,116.51-164.84,139.73l2,4.89c59-23.67,116.24-86,166.76-141.06,19.39-21.11,37.71-41.06,55.23-58,63.71-61.58,164.33-215.35,165.34-216.9l-4.41-2.87C4226.27,1196.87,4126,1350.14,4062.69,1411.31Z"></path><path class="cls-4" d="M4158.69,1335.85c-23.51,7.57-47.6,21.91-48.62,22.52l2.71,4.52c.24-.15,24.6-14.64,47.53-22,23.52-7.58,58.52-28.87,60-29.77l-2.75-4.5C4217.2,1306.81,4181.62,1328.46,4158.69,1335.85Z"></path><path class="cls-4" d="M4059.29,1504.65c-15.36-1-27.95-3.46-39.06-5.61-17.56-3.4-30.24-5.84-40.52.4l2.74,4.5c8.55-5.21,20.38-2.9,36.77.27,10.71,2.07,24,4.66,39.73,5.69s33.24-1.4,48.61-4.79a311,311,0,0,0,43.37-13l-1.94-4.9C4148.49,1487.43,4098,1507.2,4059.29,1504.65Z"></path><path class="cls-4" d="M3974.56,1439c.63-37.22,4-57.7,4-57.9l-5.2-.87c0,.21-3.44,21-4.08,58.68-.25,14.92,1.8,27.38,3.45,37.4,2.58,15.67,4.29,26-3.79,34.3l3.77,3.68c9.94-10.19,8-22.21,5.22-38.84C3976.24,1465.17,3974.31,1453.48,3974.56,1439Z"></path><path class="cls-4" d="M4082.1,1346.7c-.8,6.2-1.42,11.91-2,17.22-1.63,15-2.91,26.85-7,37.09l4.9,1.93c4.31-10.9,5.63-23,7.29-38.45.57-5.28,1.19-11,2-17.12,3.06-23.76,7.55-55.92,7.59-56.24l-5.21-.73C4089.65,1290.72,4085.16,1322.91,4082.1,1346.7Z"></path><path class="cls-4" d="M3931.82,1563.37c-8.37-2.63-13-4.09-18.7.66l3.36,4.06c3.39-2.81,5.47-2.31,13.75.31,3.2,1,7.18,2.26,12.24,3.53,17.66,4.45,48.18,9.73,48.49,9.78l.89-5.19c-.3,0-30.63-5.3-48.09-9.69C3938.85,1565.59,3935,1564.36,3931.82,1563.37Z"></path><path class="cls-6" d="M4057.06,909.86c-30.88-31.4-92.72,64-127.5,96.21s-62.08-38.76-110.81,88.07-60.4,66.45-95.17,112,5.43,139.68,4.36,178-71.58,9.61-70.35,85c.83,50.63,10.75,182.93,30.85,183.41,15,.37,65.76-6.65,65.76-6.65,121.67-33.66,154-124.2,132.22-147.06s-46-31.15,30.58-96.53,102.76-161.32,69.87-168-53.15-12-18.92-68.11S4087.94,941.26,4057.06,909.86Z"></path><path class="cls-4" d="M3883.46,1148.58c-60.46,105.26-134.57,267.7-144.24,443.86l7,.39c9.59-174.73,83.19-336,143.24-440.61,65.14-113.42,128.84-186.39,129.47-187.12l-5.27-4.63C4013,961.2,3949,1034.59,3883.46,1148.58Z"></path><path class="cls-4" d="M3787.81,1357.91l4.25,5.6c69.53-52.76,140.58-76.91,141.29-77.15l-2.24-6.66C3930.39,1279.94,3858.3,1304.43,3787.81,1357.91Z"></path><path class="cls-4" d="M3858.28,1050.43c.24.62,24,63.07-4.69,153.14l6.69,2.13c29.51-92.6,5.56-155.22,4.53-157.84Z"></path><path class="cls-4" d="M3775.33,1219.16c.26.46,26,47.47,17.83,122.18l7,.77c8.42-76.93-17.57-124.4-18.68-126.38Z"></path><path class="cls-4" d="M3967.57,1099.43c-37.56,8.28-74.47,34.73-76,35.86l4.11,5.7c.37-.28,37.27-26.73,73.45-34.7l.84-.18-1.46-6.87Z"></path><path class="cls-8" d="M3499.64,551.42H1801a61.5,61.5,0,0,0-61.5,61.49V772.38H3561.14V612.91A61.49,61.49,0,0,0,3499.64,551.42Z"></path><path class="cls-9" d="M1739.5,1756.8a61.5,61.5,0,0,0,61.5,61.49H3499.64a61.49,61.49,0,0,0,61.5-61.49V772.38H1739.5Z"></path><path class="cls-9" d="M3625.32,551.42H1926.68a61.49,61.49,0,0,0-61.5,61.49V772.38H3686.82V612.91A61.5,61.5,0,0,0,3625.32,551.42Z"></path><path class="cls-10" d="M1865.18,1756.8a61.49,61.49,0,0,0,61.5,61.49H3625.32a61.5,61.5,0,0,0,61.5-61.49V772.38H1865.18Z"></path><rect class="cls-11" x="3192.27" y="1527.44" width="248.75" height="154.19" rx="43.05"></rect><rect class="cls-12" x="2894.33" y="909.05" width="248.75" height="154.19" rx="43.05"></rect><rect class="cls-8" x="3192.27" y="1321.31" width="248.75" height="154.19" rx="43.05"></rect><rect class="cls-11" x="2894.33" y="1115.18" width="248.75" height="154.18" rx="43.05"></rect><rect class="cls-8" x="2596.38" y="909.05" width="248.75" height="154.19" rx="43.05"></rect><rect class="cls-11" x="2894.33" y="1321.31" width="248.75" height="154.19" rx="43.05"></rect><rect class="cls-8" x="3192.27" y="909.05" width="248.75" height="154.19" rx="43.05"></rect><rect class="cls-13" x="3192.27" y="1115.18" width="248.75" height="154.18" rx="43.05"></rect><rect class="cls-9" x="2894.33" y="1527.44" width="248.75" height="154.19" rx="43.05"></rect><rect class="cls-14" x="2298.43" y="1527.44" width="248.75" height="154.19" rx="43.05"></rect><rect class="cls-8" x="2000.48" y="909.05" width="248.75" height="154.19" rx="43.05"></rect><rect class="cls-8" x="2009.62" y="1106.04" width="248.75" height="154.18" rx="43.05"></rect><rect class="cls-9" x="2009.62" y="1518.29" width="248.75" height="154.19" rx="43.05"></rect><rect class="cls-11" x="2009.62" y="1312.17" width="248.75" height="154.19" rx="43.05"></rect><rect class="cls-13" x="2298.43" y="1321.31" width="248.75" height="154.19" rx="43.05"></rect><rect class="cls-9" x="2596.38" y="1527.44" width="248.75" height="154.19" rx="43.05"></rect><rect class="cls-9" x="2596.38" y="1321.31" width="248.75" height="154.19" rx="43.05"></rect><rect class="cls-12" x="2298.43" y="909.05" width="248.75" height="154.19" rx="43.05"></rect><rect class="cls-15" x="2596.38" y="1115.18" width="248.75" height="154.18" rx="43.05"></rect><rect class="cls-13" x="2298.43" y="1115.18" width="248.75" height="154.18" rx="43.05"></rect><path class="cls-16" d="M2116.7,609.37a24.6,24.6,0,0,0-24.6,24.6v47.15a24.6,24.6,0,0,0,49.2,0V634A24.6,24.6,0,0,0,2116.7,609.37Z"></path><path class="cls-8" d="M2121.43,360A103.24,103.24,0,0,0,2018.3,463.13v88.29h43V463.13a60.08,60.08,0,0,1,120.16,0V576.45a60.15,60.15,0,0,1-60.08,60.08H2092.1v43.05h29.33a103.25,103.25,0,0,0,103.13-103.13V463.13A103.25,103.25,0,0,0,2121.43,360Z"></path><g class="cls-17"><path class="cls-18" d="M2047.32,477.15v28.61a14,14,0,0,1-14,14h-15v31.63h43V463.13A14,14,0,0,0,2047.32,477.15Z"></path></g><g class="cls-17"><path class="cls-18" d="M2181.51,532.45v44a60.15,60.15,0,0,1-60.08,60.08H2092.1v21H2118a73.8,73.8,0,0,0,73.79-73.8v-41A10.27,10.27,0,0,0,2181.51,532.45Z"></path></g><path class="cls-16" d="M2426.88,609.37a24.6,24.6,0,0,0-24.6,24.6v47.15a24.6,24.6,0,0,0,49.2,0V634A24.6,24.6,0,0,0,2426.88,609.37Z"></path><path class="cls-8" d="M2431.61,360a103.25,103.25,0,0,0-103.13,103.13v88.29h43.05V463.13a60.08,60.08,0,0,1,120.16,0V576.45a60.15,60.15,0,0,1-60.08,60.08h-29.33v43.05h29.33a103.24,103.24,0,0,0,103.13-103.13V463.13A103.24,103.24,0,0,0,2431.61,360Z"></path><g class="cls-17"><path class="cls-18" d="M2357.51,477.15v28.61a14,14,0,0,1-14,14h-15v31.63h43.05V463.13A14,14,0,0,0,2357.51,477.15Z"></path></g><g class="cls-17"><path class="cls-18" d="M2491.69,532.45v44a60.15,60.15,0,0,1-60.08,60.08h-29.33v21h25.89a73.8,73.8,0,0,0,73.8-73.8v-41A10.28,10.28,0,0,0,2491.69,532.45Z"></path></g><path class="cls-16" d="M2737.07,609.37a24.6,24.6,0,0,0-24.6,24.6v47.15a24.6,24.6,0,1,0,49.2,0V634A24.6,24.6,0,0,0,2737.07,609.37Z"></path><path class="cls-8" d="M2741.8,360a103.24,103.24,0,0,0-103.13,103.13v88.29h43V463.13a60.08,60.08,0,1,1,120.15,0V576.45a60.14,60.14,0,0,1-60.07,60.08h-29.33v43.05h29.33a103.24,103.24,0,0,0,103.12-103.13V463.13A103.24,103.24,0,0,0,2741.8,360Z"></path><g class="cls-17"><path class="cls-18" d="M2667.69,477.15v28.61a14,14,0,0,1-14,14h-15v31.63h43V463.13A14,14,0,0,0,2667.69,477.15Z"></path></g><g class="cls-17"><path class="cls-18" d="M2801.87,532.45v44a60.14,60.14,0,0,1-60.07,60.08h-29.33v21h25.88a73.8,73.8,0,0,0,73.8-73.8v-41A10.28,10.28,0,0,0,2801.87,532.45Z"></path></g><path class="cls-16" d="M3047.25,609.37a24.6,24.6,0,0,0-24.6,24.6v47.15a24.6,24.6,0,0,0,49.2,0V634A24.6,24.6,0,0,0,3047.25,609.37Z"></path><path class="cls-8" d="M3052,360a103.24,103.24,0,0,0-103.13,103.13v88.29h43.05V463.13a60.08,60.08,0,1,1,120.15,0V576.45A60.14,60.14,0,0,1,3052,636.53h-29.33v43.05H3052A103.24,103.24,0,0,0,3155.1,576.45V463.13A103.24,103.24,0,0,0,3052,360Z"></path><g class="cls-17"><path class="cls-18" d="M2977.87,477.15v28.61a14,14,0,0,1-14,14h-15v31.63h43.05V463.13A14,14,0,0,0,2977.87,477.15Z"></path></g><g class="cls-17"><path class="cls-18" d="M3112.05,532.45v44A60.14,60.14,0,0,1,3052,636.53h-29.33v21h25.88a73.8,73.8,0,0,0,73.8-73.8v-41A10.28,10.28,0,0,0,3112.05,532.45Z"></path></g><path class="cls-16" d="M3357.43,609.37a24.6,24.6,0,0,0-24.6,24.6v47.15a24.6,24.6,0,0,0,49.2,0V634A24.6,24.6,0,0,0,3357.43,609.37Z"></path><path class="cls-8" d="M3362.16,360A103.24,103.24,0,0,0,3259,463.13v88.29h43V463.13a60.08,60.08,0,0,1,120.16,0V576.45a60.15,60.15,0,0,1-60.08,60.08h-29.33v43.05h29.33a103.24,103.24,0,0,0,103.13-103.13V463.13A103.24,103.24,0,0,0,3362.16,360Z"></path><g class="cls-17"><path class="cls-18" d="M3288.05,477.15v28.61a14,14,0,0,1-14,14h-15v31.63h43V463.13A14,14,0,0,0,3288.05,477.15Z"></path></g><g class="cls-17"><path class="cls-18" d="M3422.24,532.45v44a60.15,60.15,0,0,1-60.08,60.08h-29.33v21h25.89a73.8,73.8,0,0,0,73.8-73.8v-41A10.28,10.28,0,0,0,3422.24,532.45Z"></path></g><path class="cls-8" d="M2758.24,1178.35l84.91-57.53c9.78-6.62.56-22.61-9.31-15.93l-90.78,61.5a1384.16,1384.16,0,0,0-125.27-85.78c-10.18-6.18-19.46,9.77-9.31,15.93a1365.17,1365.17,0,0,1,118.44,80.79l-165.17,111.9c-9.78,6.62-.56,22.61,9.31,15.93l171.19-116a1368.62,1368.62,0,0,1,106.27,92.42c8.54,8.25,21.61-4.78,13.05-13Q2812.1,1220.77,2758.24,1178.35Z"></path><path class="cls-11" d="M3155.12,1678.05q-48-38-99-71.13l97.62-62.22c10-6.36.74-22.34-9.31-15.93L3038.87,1596a1279.92,1279.92,0,0,0-154.52-83c-10.74-4.84-20.13,11-9.31,15.93a1285.3,1285.3,0,0,1,146.72,78l-133,84.76c-10,6.36-.74,22.34,9.31,15.93l141-89.84a1260.71,1260.71,0,0,1,103,73.3C3151.28,1698.38,3164.43,1685.41,3155.12,1678.05Z"></path><path d="M1823.57,936.89c-12.34-42.82-63.46-39.47-78-83.64-11.44-34.63-27-181.57-109.9-226.3-57.29-30.89-128-11.68-128-11.68-14,.26-73.4-13.21-119.45,37.15-43.56,47.64-73.91,203.62-85.73,237s-57.37,33.72-72.27,72.4c-12.81,33.26,10.77,48.54,10.61,74-.12,19.7-22.89,46.82-8.24,77.57,13.34,28,42.4,25.49,58.68,35.56s22.7,51,53.33,65.16,61.89-11.8,78.73-9.8,31.26,55.91,86.81,57.33,76.48-43.45,100.2-50.18,79.08,15.28,108.19-10.29,37.71-63,51-75.72,37.52-7.82,55.61-38.54-9.74-54.49-11-83C1813.25,984.09,1832.54,968,1823.57,936.89Z"></path><path d="M1261.06,1139.75c-7.65-1.28-15.18-3.26-21.46-7.13a32.43,32.43,0,0,1-13.46-16.44c-5.58-13.85-2.8-29.23,3.24-43.29,2.93-7.12,6.56-14.07,9.94-21.44,3.15-7.1,7.17-15.86,5-25.64-2.4-9.06-7.36-15.68-11.34-22.37s-7.71-13.26-9.45-20.34c-3.6-14.06.43-29.61,9.83-41.22,9.23-12,22.36-21.22,35.31-30.08l19.6-13.55c6.28-4.7,13.24-9.55,16.7-16.86-4.29,6.76-11.45,10.66-18,14.87l-20.63,11.8c-13.57,8.21-27.45,16.78-38.34,29.43a53.32,53.32,0,0,0-12.44,47.58c3.62,16.92,16.59,29.7,20,42.76,1.54,6-1,13-4.13,20.1s-6.69,14.28-9.67,21.87c-6,14.75-9.69,33.27-2,49a38.87,38.87,0,0,0,17,18.74c7.5,4.05,15.73,5.71,23.73,6.57s16,.66,23.89.95c7.76.47,16,.67,22.57,5.3-6-5.48-14.63-6.66-22.38-7.7C1276.64,1141.73,1268.73,1141.13,1261.06,1139.75Z"></path><path d="M1810.61,888.58c-11.83-8.65-24.76-15.16-36.8-22.18-3-1.71-6-3.45-8.82-5.34a15.34,15.34,0,0,1-3.51-2.89,13.19,13.19,0,0,1-2.93-3.45c-3.84-5.11-6.68-11.62-9.49-17.89-5.46-12.8-9.54-26.35-14.08-39.73-9-26.76-15.47-54.73-27.87-80.5,4.76,13.38,7.72,27.24,10.91,41.08l10.29,41.39A347.94,347.94,0,0,0,1741.44,840c2.88,6.69,5.55,13.42,10.1,19.81,1.74,3.07,5.63,6.67,8.46,8.6,3,2.14,6.17,4,9.28,5.86,12.59,7,25.25,13.11,36.51,21,11.35,7.75,20.73,17.85,25.92,30.12a38.92,38.92,0,0,1,2.9,19.23c-.74,6.53-3.62,12.82-6.92,19-6.53,12.31-13.79,25.8-13.6,40.28,2-14.32,9.53-26.25,17.47-38.07,3.76-6.06,7.35-12.74,8.71-20.32s.36-15.43-2-22.56C1833.43,908.46,1822.34,897.08,1810.61,888.58Z"></path><path class="cls-19" d="M1781.57,1237.77c-67.59,26-77.26,125-37.75,185.59,1,1.64,40.47,141,80.94,284.24,15,53.28,30.11,107,43.47,154.38,3,10.63,9.57,19.57,12.26,29.84,20.85,79.55,69.61,127.32,139.51,100.2l131.48-56.87c0-.14-240-656.05-240-656.05S1831.57,1218.7,1781.57,1237.77Z"></path><path class="cls-20" d="M1920.14,1709.78l-57.36-30.52-38,28.34c15,53.28,30.11,107,43.47,154.38a136.7,136.7,0,0,0,12.26,29.84C1876.67,1807.07,1922.73,1712.91,1920.14,1709.78Z"></path><path class="cls-19" d="M1899.57,1573.73c-2.87-5-6-10-9.27-15a.14.14,0,0,0-.14-.14c-8.17-12.4-17.3-25.07-27.25-37.6v-.14c-2.84-81.51,52-218.06,49.12-239.43-.18-.54-.44-1.36-.62-1.91-4-8.71-9.4-15.1-16.89-18.37-47-20.44-103.45-39.92-140-52.86l-163,207.37-238.1-191.85a71.43,71.43,0,0,0-28.62-21.66S1201,1255.29,1190.2,1274c-5.48,13.87,15.1,2.76,49.32,33.79,67.9,61.56,104.92,182.59,96.34,258.48l-8.59,118.41L1327,1687q-1,10.83-2,22.08c-1,10.08-1.77,21.52-2.86,33.92-6.82.14-25.48,269.52-61.86,403.47q174.14,3.06,348.41-5.32c13.76,5.59,28.07,10.9,42.79,15.67,133.53,43.47,272.46-6.27,272.46-6.27,6.18-19-2.12-52.65-18.08-76.71-24.42-36.82-41.4-65.76-46.57-104.3a1234.82,1234.82,0,0,1-10.51-146c2.59-16.08,5.18-32.84,7.9-50a11.52,11.52,0,0,1,.28-2.18c1.09-.41,1.63-.55,1.63-.55,51.1-22.21,72.9-54.91,74.26-93.2v-.14c-1.36-26.3-11.85-65.4-31.47-100.69C1900.79,1575.64,1900.11,1574.68,1899.57,1573.73Z"></path><path class="cls-21" d="M1850.77,1440.44s-42.91,68.86-14.08,146.76h70.15s-32.62-38.33-43.93-66.2S1850.77,1440.44,1850.77,1440.44Z"></path><path class="cls-21" d="M1486,1800.66c-171.29-14.28-143.27-245.49-145.18-248.35l-66,97.38-2.73,14.44c.14,1,.27,1.91.41,2.86,1.5,9.13,3,18,4.5,27.12,6,37.33,48.23,295.41,48.23,295.41C1350.71,2010,1404.94,2091.28,1502,2092,1549.68,1981.75,1535.39,1804.78,1486,1800.66Z"></path><path class="cls-22" d="M1720.79,1201.12c-41.28,31.21-118.27,52.05-206.43,52.05-35.7,0-159.29-44.89-189.54-51l266.72,224.44,165.77-215.79,1.23-1.37-31.89-12.94C1724.74,1198.12,1722.84,1199.62,1720.79,1201.12Z"></path><path class="cls-23" d="M1873.4,2119.51c-51.5-14.3-137.89-24.39-238.72-26.84-16-.41-32.16-.68-48.78-.68-121.41,0-228,11-287.51,27.52-6.41,1.77-12.27,3.68-17.58,5.45C1259.69,2132.59,1248,2141,1248,2150c0,5.73,4.91,11.31,14,16.63a110,110,0,0,0,15.39,7.08c52.87,20.17,171,34.34,308.5,34.34,24,0,47.41-.41,70-1.22,106.83-4,195-16.49,238.59-33.12,18.94-7.22,29.44-15.26,29.44-23.71C1924,2138.86,1905.42,2128.37,1873.4,2119.51Z"></path><path class="cls-24" d="M1640.06,1125.63a95.63,95.63,0,0,1-3.68-26.57l-1.88-185.17H1456.58v195.94a97.41,97.41,0,0,1-46.73,83.12l-85,9.2,89.53,31.9c30.25,6.13,64.31,19.12,100,19.12,92.52,0,172.78-23,212.29-56.68l-17.85-7.22C1680.73,1177.68,1648.1,1154,1640.06,1125.63Z"></path><path class="cls-22" d="M1636.2,1045.78l-135.62-38.48s23.31,90.12,139.32,118.74a96.07,96.07,0,0,1-3.7-26.54Z"></path><path class="cls-19" d="M1252.29,1300.24c-32.9-30.55-56.94-31.82-62.09-26.76-4.77,8.17-76.85,204.11-121.55,590.68-8.58,74.13,45.92,117.32,129,117.59l75.76-55.86c13.49-21,23-44.83,30.12-69.22,15.26-53.83,18-110.51,21.39-148.12q1-11.23,2-22.07l.27-2.32,8.59-118.41C1344.44,1489.86,1319.44,1362.61,1252.29,1300.24Z"></path><path class="cls-25" d="M1873.4,2119.51c-51.5-14.3-137.89-24.39-238.72-26.84-16-.41-32.16-.68-48.78-.68-121.41,0-228,11-287.51,27.52l-21,54.23-64.86,167.33h746.71l-64.73-167.33Z"></path><path class="cls-25" d="M1634.68,2092.67c-16-.41-32.16-.68-48.78-.68-121.41,0-228,11-287.51,27.52-6.41,1.77-12.27,3.68-17.58,5.45q-10,20-18.8,41.7c-22.89,55.05-41.15,117.73-52.87,185.17-43.06,248.27,17.54,338.8,138,359.78s255.12-35.89,298-284.15c5.18-29.3,8.72-58.18,10.9-86.39a815.88,815.88,0,0,0-.14-134.21C1652.25,2165.16,1645,2126.73,1634.68,2092.67Z"></path><path class="cls-19" d="M1455.58,1855.48c-4.13-1.18-4.11-5.14-8.38-5.47.07-.3-88.59-31.19-162.34-61.71-96.17-54-207.86,10.69-216.24,115.57-4,50.28,23.35,94.37,48.12,121a1.68,1.68,0,0,0,.35.4,145.48,145.48,0,0,0,17.16,15.5c23.43,22.29,63.18,65.39,73.3,111.63,11.07,50.55,25.49,124.63,53.76,166.19,10,18.08,24.07,30.88,42.8,36.22a65.59,65.59,0,0,0,18.86,2.54c69.36-.8,140-109.17,174.57-220.82C1535.28,2014.67,1530.64,1876.9,1455.58,1855.48Z"></path><path class="cls-19" d="M2436.4,1458.18s-79.14,52.55-96.88,63.76L2100,1673.34l-146.33,92.48c-56.76,34.67-77,145.88-46.91,191.93,24.89,38.13,74,62,135.2,48.59L2316.49,1931c28.65-4.91,55.69-3.35,83.29,5.91,25.35,8.51,49.52,20.62,75.93,25.79,35.85,7,76,2.48,95-32.81,34.35-63.65,10.14-156.21-5.57-222.16C2547.44,1633.25,2479.15,1461.25,2436.4,1458.18Z"></path><path class="cls-26" d="M2540.12,1615.49c-18-55.32-38.29-102.47-58.73-130.68-12.67-17.57-25.2-27.79-37.33-28.07-18.8-.68-33.66,28.62-41.83,75.22-8.31,47-10.09,111.46-2.59,180.82.41,5,1,10.08,1.63,15.26,18.4,145.11,88.44,243,141.72,228.23,53.68-15.12,57.5-118.68,23-249.49C2558.25,1675.17,2549.39,1644.24,2540.12,1615.49Z"></path><path class="cls-26" d="M1484.11,1869.61c-8.18-8.31-17.31-14.17-27.39-17.3a59.93,59.93,0,0,0-16.76-2.46h-.13c-42,.14-77.94,48.92-102.61,126.45-8,25.21-14.71,53.42-20.16,83.94-26.44,135.3-82.17,283.42,12.53,296.23,47.42,6.4,122.91-76.17,170.73-215.43,17.72-52.05,24.94-102.6,23.85-146.61C1522.81,1938.83,1508,1893.87,1484.11,1869.61Z"></path><path class="cls-26" d="M2098.12,1670.43c-.35.22-1.19.66-2.46,1.33-64.92,34.34-105.49,78.91-114.22,125.48a3.43,3.43,0,1,0,6.75,1.26c8.34-44.47,47.65-87.32,110.68-120.66,1.51-.8,2.51-1.34,2.91-1.59a3.44,3.44,0,1,0-3.66-5.82Z"></path><polygon class="cls-25" points="1498.96 2342.16 1510.41 2363.69 1539.43 2418.47 1696.77 2715.57 2122.67 2632.8 1892.75 2169.38 1498.96 2342.16"></polygon><path class="cls-27" d="M1652.53,2391.08l-113.1,27.39,161,223.12C1641.26,2496.41,1653.89,2394.62,1652.53,2391.08Z"></path><path class="cls-25" d="M1198.1,2561.81l.41,7.9c0,1.23.13,2.46.13,3.82l1,18.12v.68l5.93,119.28L1643,2641.85l15.85-335.12-463.29,202.21Z"></path><path class="cls-24" d="M1586.7,1753.71s-84.88,64.17-181.72,113.48c-13.14,6.7,52.7,64,68.72,48.17,66.17-65.57,124.58-136.44,120.79-157.42A4.89,4.89,0,0,0,1586.7,1753.71Z"></path><path class="cls-28" d="M1918.88,1588.75l-310.5-1.55a18.73,18.73,0,0,0-18.49,15.35l-68.16,375.71a38.4,38.4,0,0,0,7,29.91l2.51,3.37,72.23-369.06c-.94-27.2,7.41-34,17-33.78l330.74.63-9.82-8.76A28.1,28.1,0,0,0,1918.88,1588.75Z"></path><path class="cls-29" d="M1940.79,1604.42l-325.68-1.13a18.73,18.73,0,0,0-18.51,15.37l-69.85,380.52a13.68,13.68,0,0,0,13.46,16.15H1856.9a18.75,18.75,0,0,0,18.36-14.94l78.88-379.5A13.68,13.68,0,0,0,1940.79,1604.42Z"></path><path class="cls-24" d="M2481.39,1484.81,2402.23,1532c-8.31,47-10.09,111.46-2.59,180.82l140.48-97.29,31.48-21.8L2496,1476.09Z"></path><path class="cls-24" d="M2496.07,1482.71l44,132.07s142.36-23.65,171.66-50.25c21.88-19.86-46.73-108.61-46.73-108.61Z"></path><path class="cls-24" d="M2588.34,1350.32s-64.08,85-143.72,158.88c-10.81,10,68.21,47.17,79.27,27.52,45.7-81.16,82.49-165.32,73.11-184.46A4.9,4.9,0,0,0,2588.34,1350.32Z"></path><path class="cls-24" d="M2654.74,1459.45a4,4,0,0,0-.95.45Z"></path><path class="cls-24" d="M2770.54,1369a47.75,47.75,0,0,0-28,15.77c-11,12.57-22.4,22.83-35.85,35.14-8.88,8.1-18.05,15.86-27.48,23.09-4.7,3.62-9.5,7.1-14.27,10.28-2.36,1.6-4.77,3.11-7,4.41-1,.52-2.42,1.45-3,1.65l-.18.08a3.93,3.93,0,0,1,1.07-.22l7.15,35.51a38.44,38.44,0,0,0,6.37-2.34l3-1.69c2.15-1.2,3.25-2.12,4.91-3.2,3-2.1,5.67-4.13,8.29-6.24,5.25-4.17,10.18-8.42,15-12.79,9.62-8.72,18.72-17.82,27.48-27.22,14.19-15.33,34.69-40.88,49.3-61.57A6.82,6.82,0,0,0,2770.54,1369Z"></path><path class="cls-24" d="M2656.27,1484.21l.51-.22C2656.48,1484.06,2656.18,1484.2,2656.27,1484.21Z"></path><path class="cls-24" d="M2808.76,1386.65a47.49,47.49,0,0,0-36,15.42c-13.08,14.63-27,26.54-44.77,39.4-11.85,8.62-24.19,16.67-36.77,24.19-6.28,3.77-12.64,7.37-19,10.81-3.16,1.62-6.41,3.39-9.48,4.83-1.51.69-3.22,1.59-4.47,2.06l-1.5.63a1,1,0,0,1,.37,0l7.16,35.51a48.1,48.1,0,0,0,6.21-2.18l3.12-1.56c2.2-1.07,3.77-2,5.64-3.08,3.65-2,6.91-4.11,10.35-6.18q10-6.32,19.61-13c12.82-8.9,25.25-18.27,37.23-28.28,21.67-18.09,48.23-45.66,66.35-70.77A5,5,0,0,0,2808.76,1386.65Z"></path><path class="cls-24" d="M2821.69,1414.3l-2.12.19a50.27,50.27,0,0,0-32.76,16.74c-14.6,16.16-29.93,28.42-49.28,43-12.44,9.36-25.43,18.07-38.68,26.23-6.61,4.09-13.35,8-20.09,11.67-3.36,1.81-6.78,3.64-10.09,5.26-1.62.76-3.42,1.73-4.86,2.31l-2.26,1c-.41.13-.26,0-.38.14l10.07,34.79c1.74-.63,3.78-1.45,5.2-2.12l3.16-1.64c2.21-1.11,3.88-2.16,5.84-3.24,3.77-2.17,7.31-4.36,10.89-6.59,7.08-4.5,14-9.09,20.77-13.9,13.54-9.58,26.68-19.65,39.27-30.45,21.85-18.73,51.31-47.53,71-73.21A6.36,6.36,0,0,0,2821.69,1414.3Z"></path><path class="cls-24" d="M2817.09,1464.25a34.42,34.42,0,0,0-27.53,10.74c-14.53,15.44-32.25,28.44-51.08,39.52a369.11,369.11,0,0,1-46.53,23c-4,1.69-8.15,3.2-12.27,4.71-2.08.76-4.15,1.51-6.19,2.16l-4.57,1.46-2.16.64a3.76,3.76,0,0,0-.76.15l7.15,35.51,4.41-1.29,2.91-1.08,5.51-2.2c2.38-1,4.65-2,6.92-3,4.57-2.06,9.14-4.13,13.61-6.39a399.82,399.82,0,0,0,48.2-28.36c21.42-14.81,49.27-40.93,67.41-64.63A6.86,6.86,0,0,0,2817.09,1464.25Z"></path><path class="cls-24" d="M1738.16,1843.55a53,53,0,0,0-35.6.4c-17.43,6.32-33.93,10.23-53.57,15-12.94,3.12-26,5.77-39,7.76-6.5,1-40.68,5.56-40,5.91l-3.41,35.64a43.43,43.43,0,0,0,7.43,1.14l3.78-.06c2.73,0,4.28-.34,6.48-.5,4-.45,7.71-1,11.37-1.63,7.33-1.26,14.39-2.76,21.4-4.44,14-3.33,27.69-7.31,41.21-11.78,22-7.32,55.52-21.21,80.74-33.51A7.57,7.57,0,0,0,1738.16,1843.55Z"></path><path class="cls-24" d="M1589.47,1895.77l.56,0C1589.73,1895.72,1589.39,1895.72,1589.47,1895.77Z"></path><path class="cls-24" d="M1772.39,1871.21a48.42,48.42,0,0,0-39.9-1.23c-18.38,7.89-36.37,12.91-58.33,17.15-14.66,2.87-29.53,5-44.39,6.55-7.43.78-14.86,1.37-22.22,1.81-3.62.14-7.38.38-10.84.38-1.69,0-3.66.09-5,0l-1.66-.06a1,1,0,0,1,.36.15l-8.67,35.89a47.82,47.82,0,0,0,6.68.66l3.55-.1c2.5,0,4.38-.27,6.54-.42,4.24-.3,8.16-.82,12.23-1.26q12-1.53,23.71-3.55c15.68-2.71,31.19-6,46.57-10.12,27.81-7.4,64.23-21.45,91.78-36.87A5.07,5.07,0,0,0,1772.39,1871.21Z"></path><path class="cls-24" d="M1758.79,1900.43l-2-.74a51.22,51.22,0,0,0-37.48,1.38c-20.44,8.66-39.88,13.39-64,18.52-15.53,3.3-31.28,5.76-47,7.6-7.88.94-15.77,1.62-23.6,2.14-3.89.23-7.83.45-11.59.52-1.82,0-3.91.13-5.49.05l-2.51-.05c-.44-.06-.26-.1-.42,0l-5.65,36.5c1.88.16,4.11.28,5.71.27l3.63-.15c2.52-.07,4.52-.33,6.79-.49,4.42-.37,8.64-.88,12.91-1.4,8.47-1.11,16.85-2.38,25.17-3.91,16.64-3,33.12-6.69,49.4-11.25,28.26-7.92,67.87-21.86,97.12-37.14A6.48,6.48,0,0,0,1758.79,1900.43Z"></path><path class="cls-24" d="M1728.53,1933.38a35.05,35.05,0,0,0-30.11-1.27c-19.89,8.46-41.76,13.33-63.88,16a374.81,374.81,0,0,1-52.87,2.42c-4.47-.08-8.92-.36-13.39-.63-2.25-.14-4.5-.29-6.66-.52l-4.87-.51-2.27-.29a3.7,3.7,0,0,0-.78-.17l-7.88,36.08,4.64.6,3.17.18,6,.21c2.62.08,5.15.06,7.69,0,5.11,0,10.22-.11,15.32-.39a407.36,407.36,0,0,0,56.62-6.71c26.07-5,62.78-18,89.42-32.69A7,7,0,0,0,1728.53,1933.38Z"></path><path class="cls-24" d="M1484.11,1869.61l-13.08-.27,1.63-8s-13.21-4.77-32.7-11.45h-.13c-42,.14-77.94,48.92-102.61,126.45l65.13,15a269.18,269.18,0,0,0,76,6.54c13.49-.81,29.43-1.91,45.78-3.4,40.74-3.55,83.94-9.41,99.88-18.54,24.8-14.3-28.34-104.51-28.34-104.51Z"></path><path class="cls-22" d="M1770.45,1877.55c-18,10.49-83.86,45.37-176.08,53.33a3.44,3.44,0,0,0,.29,6.87l.31,0c93.64-8.09,160.63-43.57,178.94-54.25l-1.13-3.31Z"></path><path class="cls-22" d="M1758,1909.26c-.8.45-81.19,45.62-161,53.9a3.44,3.44,0,0,0,.34,6.86l.36,0c81.25-8.43,162.9-54.3,163.72-54.77a3.44,3.44,0,1,0-3.4-6Z"></path><path class="cls-22" d="M1669.4,1883.93c-.37.14-37,14-75,16.93a3.44,3.44,0,0,0,.25,6.87h.28c39-3,75.39-16.78,76.91-17.36a3.44,3.44,0,1,0-2.45-6.43Z"></path><path class="cls-22" d="M2569.72,1447.42a3.48,3.48,0,0,0-4.56,1.69c-.07.15-.31.77-.7,1.77-14.45,37.26-28.93,63.76-39.74,72.72a3.44,3.44,0,0,0,4.39,5.29c16-13.26,33-53,41.76-75.52l.55-1.43A3.42,3.42,0,0,0,2569.72,1447.42Z"></path><path class="cls-22" d="M2709.62,1543.59c-11.06-27.29-31.65-78.09-52.39-87.5a3.44,3.44,0,0,0-2.84,6.27c18.24,8.27,39.7,61.21,48.86,83.82l1.71,4.19a3.44,3.44,0,0,0,6.37-2.59Z"></path><path class="cls-22" d="M2579,1546.33c-19-14.26-59.17-17.71-77.24-1.25a3.44,3.44,0,0,0,4.63,5.08c15.4-14,51.64-11,68.48,1.67a3.44,3.44,0,1,0,4.13-5.5Z"></path><path class="cls-22" d="M2749.33,1503.71c-1.47.91-27.88,15.33-45.27,24.8a3.44,3.44,0,0,0,1.64,6.46,3.52,3.52,0,0,0,1.65-.42c10.38-5.66,44.37-24.19,45.72-25.07a3.42,3.42,0,0,0,1-4.71A3.46,3.46,0,0,0,2749.33,1503.71Z"></path><path class="cls-22" d="M2770.51,1442.87c-.41.37-47.48,41-82.56,60.61a3.43,3.43,0,0,0,1.68,6.43,3.5,3.5,0,0,0,1.68-.43c36.09-20.14,83.46-61.19,83.86-61.56a3.44,3.44,0,0,0-4.66-5.05Z"></path><path class="cls-22" d="M2744.33,1424.57c-.45.38-45.18,38.34-70.39,48.72a3.44,3.44,0,0,0,1.31,6.62,3.4,3.4,0,0,0,1.31-.26c26.21-10.79,70.36-48.26,72.22-49.85a3.43,3.43,0,1,0-4.45-5.23Z"></path><path class="cls-20" d="M1509.26,1008.38c20.86,17.73,52.38,32.07,80.41,32.07h7.08c12.55,0,25.39-3,37.75-8.21V968H1491.14C1491.14,983.37,1497.56,998.38,1509.26,1008.38Z"></path><path class="cls-24" d="M1704.08,767.56c-17.74-97.38-83.77-158.86-190-139.52s-131.18,106.35-113.44,203.74c1.51,8.3,68.19,85.25,70.86,93,0,0,8.46,156.73,167.39,129.43,7.63-1.31,15.22-3.09,20.32-8.58,90.34-97.22,49.38-204.67,49.29-205.34C1707.81,835.22,1704.08,767.56,1704.08,767.56Z"></path><path d="M1585.73,624.73c-74.59-11.77-183.14,1.78-205.68,139.35S1467,906.37,1467,906.37c28-10.23-5.5-108.87-5.5-108.87,20.33,13.81,45.49,12.34,67.7,6.09,29-8.17,54.59-25.55,73.77-48.78l45.2-54.76c7.58,9.36,17.32,25,25.93,39.64a58.71,58.71,0,0,0,62.9,27.73C1736.27,692.54,1660.33,636.51,1585.73,624.73Z"></path><path class="cls-30" d="M1658.59,949.75A15.57,15.57,0,0,0,1654,948a56.44,56.44,0,0,0-9.12-.37,128.09,128.09,0,0,1-48.45-8.63c-5.46-2.25-10.92-3.76-15.61-3.9s-8.85,1-11.63,4.43c-5.71,6.88-5,16.67-1.34,25a41.83,41.83,0,0,0,3.67,6.42c9.33,13.54,26.75,23.07,44.4,23.59a53.11,53.11,0,0,0,22.26-4.19c11-4.79,19.85-13,23.86-23.14C1664.39,961.35,1664.54,953.57,1658.59,949.75Z"></path><path class="cls-10" d="M1644.92,947.65a128.09,128.09,0,0,1-48.45-8.63c-5.46-2.25-10.92-3.76-15.61-3.9-.55,4.13-.37,8.37,1.82,11.7,2.36,3.73,6.5,5.77,10.59,7.3a107.49,107.49,0,0,0,46.53,7.45c3.76-.26,7.83-.84,10.59-3.36s3.52-6.37,3.65-10.19A56.44,56.44,0,0,0,1644.92,947.65Z"></path><path class="cls-22" d="M1614.32,971.8c-13.7-4.95-29.2-5.74-42.76-.88,9.33,13.54,26.75,23.07,44.4,23.59a53.11,53.11,0,0,0,22.26-4.19C1633.58,981.51,1624.06,975.25,1614.32,971.8Z"></path><path class="cls-31" d="M1531.93,805.19c-11.2,6.95-7,14.56-5.27,17.07,1,1.46,5.18-.93,15.6-3.84,22.21-6.18,31.89-3.28,35.88-10.3,2.35-4.15,1.87-10.25-1.1-13.18C1569.59,787.57,1533.41,804.27,1531.93,805.19Z"></path><path class="cls-31" d="M1688.69,793.67c-1.34-.48-31.25-8.6-36-1.4-1.89,2.86-1.24,7.86,1.36,10.8,4.4,5,11.7,1,30.65,2.22,8.88.57,12.65,1.8,13.21.45C1698.86,803.42,1698.9,797.38,1688.69,793.67Z"></path><path class="cls-20" d="M1641.41,863.06l-3.84,4.23c10.6,9.63,15.48,18.45,14.1,25.51-1.74,8.92-12.83,13.1-12.94,13.14l2,5.37c.57-.22,14.2-5.29,16.59-17.38C1659.1,884.66,1653.76,874.28,1641.41,863.06Z"></path><path class="cls-24" d="M1430.75,850.81c-28.4,6.39-45.68,37-38.6,68.46S1428,971,1456.37,964.6s45.68-37,38.6-68.46S1459.14,844.42,1430.75,850.81Z"></path><path class="cls-20" d="M1444.64,884.12c-11.46-4.85-22.1.3-22.54.53l2.53,5.12c.08,0,8.83-4.2,17.85-.36,6.71,2.86,12,9.36,15.81,19.36-6.82,1-21,4.21-25.51,13.84L1438,925c3.66-7.9,18.84-10.59,24.38-11l3.66-.24-1.13-3.48C1460.51,896.76,1453.7,887.94,1444.64,884.12Z"></path><g class="cls-32"><path class="cls-22" d="M1470.09,873.57s-2.44,26.53.31,51.42c0,0,2.2,40,24.83,76.07a66.14,66.14,0,0,0-25.14-127.49Z"></path><path class="cls-22" d="M1682.06,919.13a66,66,0,0,0,24,50.55,207,207,0,0,0,8.08-107.58A66.08,66.08,0,0,0,1682.06,919.13Z"></path></g><path class="cls-20" d="M1556.42,841.68c-4.06.82-6.21,7.12-4.8,14.08s5.84,11.94,9.89,11.13,6.21-7.13,4.81-14.09S1560.48,840.86,1556.42,841.68Z"></path><path class="cls-20" d="M1674.34,833.83c-3.7.75-5.66,6.49-4.37,12.84s5.31,10.88,9,10.13,5.66-6.49,4.38-12.84S1678,833.08,1674.34,833.83Z"></path><path class="cls-33" d="M1527.78,685.41c-.68-3.39,24.31-17.44,61.88-25.7,3.89-.86-43.61-2.93-86.64,14.94-55.07,22.88-86.21,71.85-82.83,75.72,2.61,3,28.69-17.32,33.24-12.26,3.14,3.48-6.85,15.71-4.48,17.83,4.27,3.82,40.43-32.72,46.35-27.84,2.61,2.14-3.06,10.32-.5,12.63,4.84,4.36,28.48-21.4,63.51-40,32-17,57.82-19.68,57.31-22.17C1614.67,674,1528.57,689.32,1527.78,685.41Z"></path><path class="cls-12" d="M3028.36,1775.82H2257.93a34.71,34.71,0,0,0-33.52,25.75L2077,2353.94s-265.42,15.87-296.31,17.33-37.18,28.57-37.18,28.57H2909a51.87,51.87,0,0,0,51-42.43l8.89-48,91.54-494.38A32.82,32.82,0,0,0,3028.36,1775.82Z"></path><g class="cls-34"><path class="cls-25" d="M3028.36,1775.82h-483c-14.39,107-22.08,327.9,136.84,421.72,134.4,79.34,232.41,104.3,286.65,111.89l91.54-494.38A32.82,32.82,0,0,0,3028.36,1775.82Z"></path></g><path class="cls-25" d="M2224.41,1801.57,2077,2353.94H2116s124.4-470.74,143-529.89c7.38-23.5,14.77-38.58,21-48.23h-22.1A34.71,34.71,0,0,0,2224.41,1801.57Z"></path><ellipse class="cls-10" cx="2609.91" cy="2099.01" rx="107.41" ry="85.39" transform="matrix(0.16, -0.99, 0.99, 0.16, 125.66, 4345.34)"></ellipse><rect class="cls-8" x="889.23" y="2477.99" width="2941.34" height="282.01"></rect><g class="cls-35"><rect class="cls-36" x="889.23" y="2497.45" width="2941.34" height="37.39"></rect></g><path class="cls-36" d="M3885.46,2399.84H834.34a97.61,97.61,0,0,0-97.61,97.6H3983.07A97.61,97.61,0,0,0,3885.46,2399.84Z"></path><path class="cls-28" d="M3957.35,1620.41l-558.88-89.23a19.85,19.85,0,0,0-22.73,16.47l-7,43.59a19.86,19.86,0,0,0,16.47,22.74l558.88,89.22a19.84,19.84,0,0,0,22.73-16.47l7-43.59A19.85,19.85,0,0,0,3957.35,1620.41Z"></path><g class="cls-37"><path class="cls-38" d="M3475.82,1560l-8.11,50.77a16.22,16.22,0,0,0,13.46,18.57l52.26,8.34a13.81,13.81,0,0,1-11.46-15.82l8.86-55.5a13.82,13.82,0,0,1,15.82-11.47l-52.26-8.34A16.21,16.21,0,0,0,3475.82,1560Z"></path></g><path class="cls-28" d="M3846.12,2317.12l-558.88-89.23a19.85,19.85,0,0,0-22.73,16.47l-7,43.59a19.85,19.85,0,0,0,16.47,22.74l558.88,89.22a19.85,19.85,0,0,0,22.73-16.47l7-43.59A19.85,19.85,0,0,0,3846.12,2317.12Z"></path><g class="cls-37"><path class="cls-38" d="M3364.59,2256.66l-8.11,50.77a16.22,16.22,0,0,0,13.46,18.57l52.26,8.34a13.81,13.81,0,0,1-11.47-15.82l8.86-55.5a13.83,13.83,0,0,1,15.83-11.47l-52.27-8.34A16.2,16.2,0,0,0,3364.59,2256.66Z"></path></g><path class="cls-39" d="M3551.34,1895l-.59-.09c-84.15-13.44-139.74-103.4-124.17-200.94L3438,1622.4l-36.08-5.76-11.43,71.54A178.86,178.86,0,0,0,3538.92,1893l.68.11a23.15,23.15,0,0,1,19.22,26.52l-5.74,35.93-5.73,35.94a23.17,23.17,0,0,1-26.52,19.22l-.69-.11c-97.54-15.58-189.23,50.87-204.81,148.41l-11.42,71.54,36.08,5.76,11.42-71.54c15.58-97.54,96.41-165.72,180.56-152.28l.59.09c10.9,1.74,21.37-7.09,23.38-19.72l5.74-35.93,5.74-35.94C3569.43,1908.36,3562.24,1896.71,3551.34,1895Z"></path><g class="cls-40"><path class="cls-41" d="M3880,1766.33c-15.57,97.53-96.41,165.71-180.56,152.28-10.89-1.74-21.36,7.09-23.38,19.72l-5.73,35.93-5.74,35.94c-2,12.63,5.18,24.28,16.08,26,84.14,13.43,139.73,103.4,124.16,200.93l-11.42,71.55,36.08,5.76,11.42-71.55a178.85,178.85,0,0,0-148.41-204.8,23.16,23.16,0,0,1-19.22-26.52l5.74-35.94,5.73-35.93a23.16,23.16,0,0,1,26.52-19.22c97.54,15.57,189.24-50.88,204.81-148.41l11.42-71.55-36.08-5.76Z"></path></g><g class="cls-40"><path class="cls-42" d="M3426.58,1693.94c-15.57,97.54,40,187.5,124.17,200.94l.59.09c10.9,1.74,18.09,13.39,16.08,26l-5.74,35.94-5.74,35.93c-2,12.63-12.48,21.46-23.38,19.72l-.59-.09c-84.15-13.44-165,54.74-180.56,152.28L3340,2236.31l453.38,72.39,11.42-71.55c15.57-97.53-40-187.5-124.16-200.93-10.9-1.74-18.1-13.39-16.08-26l5.74-35.94,5.73-35.93c2-12.63,12.49-21.46,23.38-19.72,84.15,13.43,165-54.75,180.56-152.28l11.42-71.55L3438,1622.4Z"></path></g><path class="cls-29" d="M3629.17,1930.85A79.51,79.51,0,0,1,3720.1,1865a122.45,122.45,0,0,0,103.62-32.14l-364.4-58.18a122.46,122.46,0,0,0,88.46,62.81l.69.11a79.48,79.48,0,0,1,65.89,90.92L3594,2055.9a79.5,79.5,0,0,1-90.93,65.89l-.68-.11A122.73,122.73,0,0,0,3362,2223.41l-2.56,16,414.46,66.17,2.55-16a122.74,122.74,0,0,0-101.74-140.4,79.51,79.51,0,0,1-65.89-90.93Z"></path><g class="cls-32"><path class="cls-10" d="M3505,2029.57l-23.32-3.72a9.87,9.87,0,0,0-6.27,1,148.58,148.58,0,0,0-37.21,29.26,9.9,9.9,0,0,0,5.79,16.46l37.53,6a9.88,9.88,0,0,0,10.16-4.85,177,177,0,0,1,19.36-28A9.91,9.91,0,0,0,3505,2029.57Z"></path></g><g class="cls-32"><path class="cls-10" d="M3513.2,1654.82l-18.73-3a26.45,26.45,0,0,0-30.31,22l-.17,1.09a26.47,26.47,0,0,0,22,30.31l18.73,3a26.5,26.5,0,0,0,30.32-22l.16-1.06A26.46,26.46,0,0,0,3513.2,1654.82Z"></path></g><g class="cls-32"><path class="cls-10" d="M3585.33,1900.4l-.32-.05c-36.93-5.9-59.78-63.34-58.58-137.15a26.59,26.59,0,0,0-22.28-26.84l-15.17-2.42c-17.14-2.74-32.44,11.51-30.52,28.76,7.79,69.85,47.63,125,103.27,133.93l.51.08c9.28,1.48,15.18,12.92,13.16,25.55l-5.74,35.94-3.67,23a8.56,8.56,0,1,0,16.91,2.7l3.68-23,5.74-35.94C3594.33,1912.33,3591.21,1901.34,3585.33,1900.4Z"></path></g><g class="cls-32"><path class="cls-10" d="M3444.62,2117.09l-23.71-3.79a23,23,0,0,0-25.43,15,241.24,241.24,0,0,0-10.56,41.86l-2.66,16.63a23.16,23.16,0,0,0,19.22,26.52l25.27,4a23.17,23.17,0,0,0,26.52-19.22l2.65-16.63c2-12.34,4.48-24.29,7.46-35.74A23.11,23.11,0,0,0,3444.62,2117.09Z"></path></g></g></g></svg>